<?xml version="1.0" encoding="UTF-8"?>
<svg version="1.1" xmlns="http://www.w3.org/2000/svg" width="500" height="500">
<path d="M0 0 C0 0.66 0 1.32 0 2 C0.804375 2.28875 1.60875 2.5775 2.4375 2.875 C5 4 5 4 6 6 C8.61619206 25.98599182 -3.42861437 50.4727659 -15 66 C-15.66 66 -16.32 66 -17 66 C-17 66.66 -17 67.32 -17 68 C-17.66 68 -18.32 68 -19 68 C-19 68.99 -19 69.98 -19 71 C-19.66 71 -20.32 71 -21 71 C-21.24234375 71.72703125 -21.4846875 72.4540625 -21.734375 73.203125 C-23.16211182 76.35824711 -24.85600456 78.25829046 -27.25 80.75 C-30.83973883 84.61587258 -33.81985416 88.51341082 -36.65625 92.94921875 C-38.56851885 95.86765232 -40.63273558 98.43546355 -43 101 C-43.66 101 -44.32 101 -45 101 C-45.37898438 102.10021484 -45.37898438 102.10021484 -45.765625 103.22265625 C-47.43733965 106.9840142 -49.9854738 109.59622019 -52.734375 112.62109375 C-54.2896932 114.94699384 -54.2896932 114.94699384 -53.51171875 117.59375 C-52.76341797 119.27984375 -52.76341797 119.27984375 -52 121 C-51.6479248 121.81154541 -51.29584961 122.62309082 -50.93310547 123.45922852 C-49.67106038 126.34044843 -48.37093451 129.20206957 -47.0625 132.0625 C-46.61970703 133.04283203 -46.17691406 134.02316406 -45.72070312 135.03320312 C-45.28822266 135.98259766 -44.85574219 136.93199219 -44.41015625 137.91015625 C-43.82439819 139.19611694 -43.82439819 139.19611694 -43.22680664 140.50805664 C-41.95078882 143.0999599 -40.51896969 145.54386971 -39 148 C-38.34 145.69 -37.68 143.38 -37 141 C-28.98473428 142.01781152 -24.38208029 144.9693392 -19 151 C-17.0234473 154.06642755 -16.40033732 156.37525325 -17 160 C-18.60391899 162.28272042 -20.1504547 164.2555057 -22 166.3125 C-22.47695313 166.86228516 -22.95390625 167.41207031 -23.4453125 167.97851562 C-24.61928654 169.32858577 -25.80821498 170.66562641 -27 172 C-22.65125187 182.17792116 -18.06107007 192.15475731 -13 202 C-12.67 200.02 -12.34 198.04 -12 196 C-5.47457588 195.00700068 -2.16566773 197.48954617 3.05859375 201.2734375 C3.69925781 201.84320313 4.33992188 202.41296875 5 203 C5 203.66 5 204.32 5 205 C5.639375 205.20625 6.27875 205.4125 6.9375 205.625 C9 207 9 207 9.8125 210 C10 213 10 213 9 215 C8.34 215 7.68 215 7 215 C6.79375 215.680625 6.5875 216.36125 6.375 217.0625 C5.09820981 219.79018814 3.87702521 221.44960535 1.9140625 223.68359375 C1.36959473 224.3067749 0.82512695 224.92995605 0.26416016 225.57202148 C-0.1530127 226.04325439 -0.57018555 226.5144873 -1 227 C0.35141038 229.87630329 1.7061645 232.75101594 3.0625 235.625 C3.46936035 236.48714111 3.8762207 237.34928223 4.29541016 238.23754883 C6.47228555 242.83284331 8.6815813 247.40568201 10.98681641 251.93798828 C11.85040285 253.63904943 12.69695117 255.34872684 13.54296875 257.05859375 C14.41306187 258.81510882 15.3043835 260.56171718 16.23828125 262.28515625 C17.60833036 265.12110152 18.1889484 267.27549722 17.38671875 270.3515625 C16.69727599 272.07117648 15.95632007 273.77081192 15.171875 275.44921875 C14.06594993 277.85644899 13.3188531 280.13632062 12.625 282.6875 C10.62914572 289.65626493 7.75789169 296.30608812 5 303 C4.01 303 3.02 303 2 303 C-1 299.66666667 -1 299.66666667 -1 297 C-1.66 297 -2.32 297 -3 297 C-4.47265625 294.91796875 -4.47265625 294.91796875 -6.0625 292.1875 C-6.85333984 290.84751953 -6.85333984 290.84751953 -7.66015625 289.48046875 C-9 287 -9 287 -10 284 C-10.66 284 -11.32 284 -12 284 C-13.68970395 281.67628323 -15.26599639 279.35405425 -16.8125 276.9375 C-17.67198846 275.61250946 -18.53266295 274.28828751 -19.39453125 272.96484375 C-19.81943848 272.3085498 -20.2443457 271.65225586 -20.68212891 270.97607422 C-22.01045664 268.98432086 -23.4058284 267.05725717 -24.82421875 265.12890625 C-27 262 -27 262 -27 260 C-27.66 260 -28.32 260 -29 260 C-30.7265625 257.91796875 -30.7265625 257.91796875 -32.625 255.1875 C-33.25664062 254.29417969 -33.88828125 253.40085937 -34.5390625 252.48046875 C-36 250 -36 250 -36 247 C-36.66 247 -37.32 247 -38 247 C-42 241.58823529 -42 241.58823529 -42 239 C-42.66 239 -43.32 239 -44 239 C-45.62109375 236.98828125 -45.62109375 236.98828125 -47.4375 234.3125 C-48.03433594 233.44238281 -48.63117188 232.57226562 -49.24609375 231.67578125 C-50.36061463 229.97545429 -51.44078561 228.25171674 -52.47265625 226.5 C-54.15526455 223.74585853 -56.03188835 221.24532157 -58 218.6875 C-61.6425069 213.88010047 -65.1091324 208.98747776 -68.5 204 C-72.52192326 198.08697841 -76.67606552 192.32543227 -81.02734375 186.6484375 C-87 178.62970297 -87 178.62970297 -87 176 C-87.66 176 -88.32 176 -89 176 C-90.875 173.6875 -90.875 173.6875 -92 170 C-90.52501743 166.02314826 -88.26872664 162.56927057 -86 159 C-84.87083293 157.14836809 -83.74556094 155.29435277 -82.625 153.4375 C-82.12226563 152.63183594 -81.61953125 151.82617188 -81.1015625 150.99609375 C-79.83894402 149.08813661 -79.83894402 149.08813661 -80 147 C-80.37769531 147.48726562 -80.75539063 147.97453125 -81.14453125 148.4765625 C-84.04283189 152.20973662 -86.94734909 155.93739924 -89.87890625 159.64453125 C-90.37350342 160.27085449 -90.86810059 160.89717773 -91.37768555 161.54248047 C-92.36857668 162.79656444 -93.3609066 164.04951304 -94.35473633 165.30126953 C-96.91410193 168.49467069 -96.91410193 168.49467069 -99 172 C-99.66 172 -100.32 172 -101 172 C-101.25136719 172.56074219 -101.50273437 173.12148437 -101.76171875 173.69921875 C-103.18821979 176.34972069 -104.8992102 178.48948083 -106.8125 180.8125 C-109.29122865 183.84905506 -111.66594578 186.88725188 -113.875 190.125 C-114.57625 191.07375 -115.2775 192.0225 -116 193 C-116.66 193 -117.32 193 -118 193 C-118.268125 193.7425 -118.53625 194.485 -118.8125 195.25 C-119.95276751 197.89061949 -121.09380306 199.85552844 -123 202 C-123.66 202 -124.32 202 -125 202 C-125.22816406 202.5259375 -125.45632812 203.051875 -125.69140625 203.59375 C-127.44528881 206.81879973 -129.67658048 209.62246607 -131.9375 212.5 C-132.8217855 213.63528356 -133.70590411 214.77069713 -134.58984375 215.90625 C-135.78287109 217.43765625 -135.78287109 217.43765625 -137 219 C-137.83724609 220.19109375 -137.83724609 220.19109375 -138.69140625 221.40625 C-139.12324219 221.9321875 -139.55507812 222.458125 -140 223 C-140.66 223 -141.32 223 -142 223 C-142.66 224.65 -143.32 226.3 -144 228 C-144.66 228 -145.32 228 -146 228 C-146.226875 228.5775 -146.45375 229.155 -146.6875 229.75 C-148 232 -148 232 -150.6875 233.6875 C-153.18572734 235.67232003 -153.18572734 235.67232003 -153.10375977 237.83422852 C-152.31251016 243.80859998 -150.92488107 249.46580553 -149.25 255.25 C-146.84063778 263.80177565 -144.65145981 272.37818028 -142.64941406 281.03417969 C-141.79986854 284.69521261 -140.92735446 288.31689884 -139.8359375 291.9140625 C-138.9685564 295.11607686 -139.04897599 296.86162076 -140 300 C-141.32 300.33 -142.64 300.66 -144 301 C-144 301.66 -144 302.32 -144 303 C-146.0944968 304.63429751 -148.17782091 306.14167234 -150.375 307.625 C-151.27992188 308.25535156 -151.27992188 308.25535156 -152.203125 308.8984375 C-156.73462865 312 -156.73462865 312 -159 312 C-159 312.66 -159 313.32 -159 314 C-159.66 314 -160.32 314 -161 314 C-161 314.66 -161 315.32 -161 316 C-162.65 316.33 -164.3 316.66 -166 317 C-171.50825971 308.89285367 -176.82839602 300.73149061 -181.80761719 292.28808594 C-184.45978901 287.82064984 -187.33829729 283.57575332 -190.359375 279.34765625 C-192.12870567 276.81582832 -193.80420459 274.24666811 -195.4375 271.625 C-195.93121094 270.83351563 -196.42492187 270.04203125 -196.93359375 269.2265625 C-198 267 -198 267 -198 263 C-195.93008954 260.18465555 -193.72985583 259.38669649 -190.4375 258.4375 C-186.84760436 257.39821047 -186.84760436 257.39821047 -184 255 C-185.051875 255.495 -186.10375 255.99 -187.1875 256.5 C-189.58696564 257.6291603 -190.69392322 258.04553208 -193.36328125 257.6484375 C-197.13274034 258.15103205 -198.20106115 260.1186069 -200.4609375 263.0390625 C-200.96882813 263.72742188 -201.47671875 264.41578125 -202 265.125 C-203.02035519 266.46130273 -204.04118329 267.7972445 -205.0625 269.1328125 C-205.55105469 269.7815332 -206.03960937 270.43025391 -206.54296875 271.09863281 C-208.61533287 273.80298464 -210.79760891 276.40085464 -213 279 C-215.71224618 277.38731308 -218.37352812 275.75098126 -221 274 C-219.2329342 268.60224164 -215.86904533 265.42401667 -211.99609375 261.40234375 C-210.1009846 259.12153724 -209.38014714 257.88778441 -209 255 C-210.918125 254.690625 -210.918125 254.690625 -212.875 254.375 C-223.34280393 252.28143921 -233.53066751 248.41459238 -243.4375 244.5 C-251.80123269 241.19965818 -260.41040864 238.6394626 -269 236 C-268.47240259 232.01434562 -267.68366707 228.95603977 -265.75 225.4375 C-263.07645935 220.33134824 -261.02664084 215.08415009 -259.015625 209.6875 C-258 207 -258 207 -257 205 C-235.31601801 204.81652449 -213.67215569 205.34981804 -192 206 C-191.86803223 205.22817383 -191.73606445 204.45634766 -191.60009766 203.66113281 C-190.85134172 200.34077494 -189.42510092 198.45708306 -187.375 195.75 C-186.65570313 194.79222656 -185.93640625 193.83445312 -185.1953125 192.84765625 C-182.65853294 189.55706497 -180.10991401 186.27659383 -177.53515625 183.015625 C-176.1537271 181.20184016 -174.90634779 179.36246994 -173.6875 177.4375 C-173.130625 176.633125 -172.57375 175.82875 -172 175 C-171.34 175 -170.68 175 -170 175 C-169.73316406 174.42378906 -169.46632813 173.84757813 -169.19140625 173.25390625 C-167.95893849 170.92231971 -166.57230313 169.00515881 -164.9375 166.9375 C-164.32132813 166.15632812 -163.70515625 165.37515625 -163.0703125 164.5703125 C-160.08473551 160.8636905 -157.04628788 157.20103227 -154.015625 153.53125 C-152.40111893 151.50373075 -150.9446282 149.49915059 -149.5625 147.3125 C-149.046875 146.549375 -148.53125 145.78625 -148 145 C-147.34 145 -146.68 145 -146 145 C-145.731875 144.2575 -145.46375 143.515 -145.1875 142.75 C-144.04723249 140.10938051 -142.90619694 138.14447156 -141 136 C-140.34 136 -139.68 136 -139 136 C-138.73960937 135.43023437 -138.47921875 134.86046875 -138.2109375 134.2734375 C-136.89944765 131.81122107 -135.37148389 129.79857165 -133.625 127.625 C-131.50711817 124.96113615 -129.5003082 122.31747077 -127.6875 119.4375 C-127.130625 118.633125 -126.57375 117.82875 -126 117 C-125.34 117 -124.68 117 -124 117 C-123.01 115.02 -123.01 115.02 -122 113 C-124.63901835 114.03675721 -125.95931491 114.94914364 -127.75 117.1875 C-130.2877297 120.35966213 -133.11037045 122.82410768 -136.1953125 125.44921875 C-138.07711254 127.02681009 -138.07711254 127.02681009 -140 129 C-149.68708123 130.5068793 -159.52833256 124.27399794 -168.0703125 120.3125 C-171.42961784 118.80753121 -174.82995702 117.42173659 -178.25 116.0625 C-179.20108643 115.68448242 -179.20108643 115.68448242 -180.17138672 115.29882812 C-183.36584369 114.03360102 -186.56455438 112.77963416 -189.765625 111.53125 C-196.13928195 109.03109083 -202.38684608 106.39603568 -208.5625 103.4375 C-213.09112106 101.27186489 -217.61586217 99.35962293 -222.375 97.75 C-230.40789958 95.00527349 -238.07085822 91.48039388 -245.81542969 88.01757812 C-252.41125111 85.08654383 -258.97051481 82.48911291 -265.8046875 80.171875 C-275.52150449 76.60825019 -284.79677432 71.69905876 -294 67 C-292.65872936 64.31745872 -290.69099895 63.6579832 -288.13671875 62.25390625 C-285.78175831 60.87192764 -283.59486712 59.33975802 -281.375 57.75 C-263.97388222 45.52147058 -263.97388222 45.52147058 -258.875 45.3125 C-254.89934092 46.01785887 -251.12563121 46.99711428 -247.2578125 48.14453125 C-243.34602634 49.1717269 -239.42513966 49.84252405 -235.4375 50.5 C-229.12225429 51.55044842 -223.06422648 52.89912547 -217 55 C-216.74605469 54.44828125 -216.49210937 53.8965625 -216.23046875 53.328125 C-213.79396558 48.71810631 -210.7122362 44.65804297 -207 41 C-202.97292616 39.82848761 -201.25160438 40.33858305 -197.59765625 42.26953125 C-191.2581865 46.22544049 -191.2581865 46.22544049 -190 50 C-189.34 50 -188.68 50 -188 50 C-184.88549618 54.15267176 -184.88549618 54.15267176 -185.3125 57.3125 C-185.539375 57.869375 -185.76625 58.42625 -186 59 C-187.32 59.33 -188.64 59.66 -190 60 C-183.64337055 62.27540087 -177.30148507 63.9698858 -170.6875 65.3125 C-169.80771484 65.50650391 -168.92792969 65.70050781 -168.02148438 65.90039062 C-167.17263672 66.07376953 -166.32378906 66.24714844 -165.44921875 66.42578125 C-164.68955811 66.58473877 -163.92989746 66.74369629 -163.1472168 66.9074707 C-160.50488775 67.02133571 -159.22029604 66.3976284 -157 65 C-154.84230244 62.9065393 -154.84230244 62.9065393 -152.8125 60.5 C-152.11769531 59.7059375 -151.42289063 58.911875 -150.70703125 58.09375 C-148.96585842 56.11386139 -148.96585842 56.11386139 -148 54 C-142.51937679 53.1568272 -139.48309341 55.13977309 -135.19140625 58.21875 C-127.30239939 64.63120477 -127.30239939 64.63120477 -126.625 69.9375 C-126.74875 70.618125 -126.8725 71.29875 -127 72 C-128.98 72.99 -128.98 72.99 -131 74 C-129.92363281 74.25394531 -128.84726563 74.50789063 -127.73828125 74.76953125 C-127.03735352 74.93493408 -126.33642578 75.10033691 -125.61425781 75.27075195 C-124.07097059 75.63398428 -122.52734576 75.99578496 -120.98339844 76.35620117 C-117.36559776 77.20138003 -113.75530408 78.06160872 -110.15234375 78.96875 C-109.02957031 79.2471875 -107.90679687 79.525625 -106.75 79.8125 C-105.75484375 80.06644531 -104.7596875 80.32039063 -103.734375 80.58203125 C-100.73102048 81.04111544 -98.90770568 80.8462914 -96 80 C-94.2340148 78.56073882 -94.2340148 78.56073882 -92.80078125 76.640625 C-92.23625244 75.94324219 -91.67172363 75.24585938 -91.09008789 74.52734375 C-90.50348389 73.77582031 -89.91687988 73.02429688 -89.3125 72.25 C-88.69818115 71.48300781 -88.0838623 70.71601563 -87.45092773 69.92578125 C-85.61857253 67.6288281 -83.80589035 65.31779628 -82 63 C-81.50177734 62.36255859 -81.00355469 61.72511719 -80.49023438 61.06835938 C-77.63128258 57.40065177 -74.81128746 53.70440406 -72 50 C-67.46600751 44.08859206 -62.82127854 38.27970668 -58.08203125 32.53125 C-56.83879578 31.01977424 -55.60390314 29.5012824 -54.38671875 27.96875 C-53.30068993 26.61041307 -52.15758399 25.2978972 -51 24 C-50.34 24 -49.68 24 -49 24 C-48.80148437 23.43925781 -48.60296875 22.87851563 -48.3984375 22.30078125 C-46.44339149 19.08423907 -43.67045013 17.28314961 -40.625 15.1875 C-39.68442749 14.53164917 -39.68442749 14.53164917 -38.72485352 13.86254883 C-10.78402437 -5.39201219 -10.78402437 -5.39201219 0 0 Z M-24 17 C-24 18.32 -24 19.64 -24 21 C-22.02 21.66 -20.04 22.32 -18 23 C-17.34 21.68 -16.68 20.36 -16 19 C-19.08809695 17.23537317 -20.23312136 17 -24 17 Z M-33 20 C-31.35 20 -29.7 20 -28 20 C-28 19.34 -28 18.68 -28 18 C-30.32357511 17.81509993 -30.32357511 17.81509993 -33 20 Z M-13 22 C-13.99 22.99 -14.98 23.98 -16 25 C-14.02 27.97 -14.02 27.97 -12 31 C-10.68 30.67 -9.36 30.34 -8 30 C-9.26946514 25.17557816 -9.26946514 25.17557816 -13 22 Z M-10 34 C-9.67 35.65 -9.34 37.3 -9 39 C-8.67 39 -8.34 39 -8 39 C-8 37.35 -8 35.7 -8 34 C-8.66 34 -9.32 34 -10 34 Z M-52 36 C-53.35712166 37.55855981 -53.35712166 37.55855981 -54.625 39.5 C-55.07101562 40.1496875 -55.51703125 40.799375 -55.9765625 41.46875 C-56.31429687 41.9740625 -56.65203125 42.479375 -57 43 C-56.01 43 -55.02 43 -54 43 C-52.68 40.69 -51.36 38.38 -50 36 C-50.66 36 -51.32 36 -52 36 Z M-65 52 C-65.66 53.65 -66.32 55.3 -67 57 C-65.68 55.68 -64.36 54.36 -63 53 C-63.66 52.67 -64.32 52.34 -65 52 Z M-68 57 C-68.66 58.32 -69.32 59.64 -70 61 C-69.01 60.34 -68.02 59.68 -67 59 C-67.33 58.34 -67.66 57.68 -68 57 Z M-21 59 C-22.32 60.65 -23.64 62.3 -25 64 C-24.01 64.495 -24.01 64.495 -23 65 C-22.01 63.68 -21.02 62.36 -20 61 C-20.33 60.34 -20.66 59.68 -21 59 Z M-26 65 C-26.33 65.66 -26.66 66.32 -27 67 C-26.34 67 -25.68 67 -25 67 C-25.33 66.34 -25.66 65.68 -26 65 Z M-78 69 C-79.38232443 70.62626404 -80.71937515 72.2925002 -82 74 C-81.67 74.66 -81.34 75.32 -81 76 C-79.35 73.69 -77.7 71.38 -76 69 C-76.66 69 -77.32 69 -78 69 Z M-35 76 C-35 79 -35 79 -35 79 Z M-37 79 C-37.99 79.99 -38.98 80.98 -40 82 C-39.67 82.66 -39.34 83.32 -39 84 C-38.01 83.01 -37.02 82.02 -36 81 C-36.33 80.34 -36.66 79.68 -37 79 Z M-91 85 C-92.98 87.97 -94.96 90.94 -97 94 C-93.65001479 92.88333826 -93.20659778 92.25305075 -91.3125 89.4375 C-90.87550781 88.79683594 -90.43851563 88.15617187 -89.98828125 87.49609375 C-89.66214844 87.00238281 -89.33601562 86.50867188 -89 86 C-89.66 85.67 -90.32 85.34 -91 85 Z M-48 92 C-49.03013277 93.64821244 -50.03114628 95.31503702 -51 97 C-50.34 97 -49.68 97 -49 97 C-48.34 95.35 -47.68 93.7 -47 92 C-47.33 92 -47.66 92 -48 92 Z M-53 98 C-53.33 98.66 -53.66 99.32 -54 100 C-53.01 100 -52.02 100 -51 100 C-51 99.34 -51 98.68 -51 98 C-51.66 98 -52.32 98 -53 98 Z M-104 102 C-105.58455866 103.78723941 -105.58455866 103.78723941 -107.125 106 C-107.93324219 107.11375 -107.93324219 107.11375 -108.7578125 108.25 C-109.16773438 108.8275 -109.57765625 109.405 -110 110 C-109.01 110 -108.02 110 -107 110 C-105.5305191 108.23267901 -105.5305191 108.23267901 -104.3125 106 C-103.87550781 105.2575 -103.43851563 104.515 -102.98828125 103.75 C-102.66214844 103.1725 -102.33601562 102.595 -102 102 C-102.66 102 -103.32 102 -104 102 Z M-120 109 C-119.67 109.66 -119.34 110.32 -119 111 C-118.67 110.34 -118.34 109.68 -118 109 C-118.66 109 -119.32 109 -120 109 Z M-62 109 C-63.63676257 110.9600281 -63.63676257 110.9600281 -65 113 C-64.67 113.66 -64.34 114.32 -64 115 C-62.62437146 113.71034824 -61.29233607 112.37310707 -60 111 C-60 110.34 -60 109.68 -60 109 C-60.66 109 -61.32 109 -62 109 Z M-117 118 C-118.98 120.97 -120.96 123.94 -123 127 C-119.27059611 125.75686537 -118.15343189 124.23014784 -116 121 C-116.33 120.01 -116.66 119.02 -117 118 Z M-75 126 C-76.7143618 127.95927063 -78.38405168 129.95880212 -80 132 C-79.67 132.66 -79.34 133.32 -79 134 C-77.02 131.36 -75.04 128.72 -73 126 C-73.66 126 -74.32 126 -75 126 Z M-131 136 C-131.88791631 137.1411908 -132.73616038 138.31346106 -133.5625 139.5 C-134.01753906 140.1496875 -134.47257813 140.799375 -134.94140625 141.46875 C-135.29074219 141.9740625 -135.64007813 142.479375 -136 143 C-133.00675737 141.9024777 -132.15389099 141.32317108 -130.75 138.375 C-130.5025 137.59125 -130.255 136.8075 -130 136 C-130.33 136 -130.66 136 -131 136 Z M-88 142 C-88.845625 142.928125 -89.69125 143.85625 -90.5625 144.8125 C-91.03816406 145.33457031 -91.51382813 145.85664063 -92.00390625 146.39453125 C-92.33261719 146.92433594 -92.66132813 147.45414063 -93 148 C-92.67 148.99 -92.34 149.98 -92 151 C-90.02 148.36 -88.04 145.72 -86 143 C-86.66 142.67 -87.32 142.34 -88 142 Z M-144 152 C-143.67 152.66 -143.34 153.32 -143 154 C-142.67 153.34 -142.34 152.68 -142 152 C-142.66 152 -143.32 152 -144 152 Z M-146 155 C-146.66 156.32 -147.32 157.64 -148 159 C-147.34 159 -146.68 159 -146 159 C-145.67 157.68 -145.34 156.36 -145 155 C-145.33 155 -145.66 155 -146 155 Z M-101 159 C-103.76020432 161.76223489 -103.76020432 161.76223489 -106 165 C-105.67 165.99 -105.34 166.98 -105 168 C-103.02 165.03 -101.04 162.06 -99 159 C-99.66 159 -100.32 159 -101 159 Z M-157 168 C-157 168.66 -157 169.32 -157 170 C-157.66 170 -158.32 170 -159 170 C-158.67 170.99 -158.34 171.98 -158 173 C-157.34 172.34 -156.68 171.68 -156 171 C-156.33 170.01 -156.66 169.02 -157 168 Z M-162 175 C-161 177 -161 177 -161 177 Z M-115 176 C-116.35712166 177.55855981 -116.35712166 177.55855981 -117.625 179.5 C-118.07101563 180.1496875 -118.51703125 180.799375 -118.9765625 181.46875 C-119.31429687 181.9740625 -119.65203125 182.479375 -120 183 C-119.01 183 -118.02 183 -117 183 C-115.68 180.69 -114.36 178.38 -113 176 C-113.66 176 -114.32 176 -115 176 Z M-170 185 C-170.66 186.32 -171.32 187.64 -172 189 C-172.66 189 -173.32 189 -174 189 C-174.33 190.32 -174.66 191.64 -175 193 C-174.34 192.67 -173.68 192.34 -173 192 C-173 191.34 -173 190.68 -173 190 C-172.34 190 -171.68 190 -171 190 C-170.34 188.35 -169.68 186.7 -169 185 C-169.33 185 -169.66 185 -170 185 Z M-128 192 C-128 192.66 -128 193.32 -128 194 C-127.34 194 -126.68 194 -126 194 C-126 193.34 -126 192.68 -126 192 C-126.66 192 -127.32 192 -128 192 Z M-129 194 C-130.36176581 195.98075027 -131.69593116 197.98079663 -133 200 C-132.01 199.67 -131.02 199.34 -130 199 C-128.78130071 196.49552484 -128.78130071 196.49552484 -128 194 C-128.33 194 -128.66 194 -129 194 Z M-140 208 C-141.32 209.32 -142.64 210.64 -144 212 C-143.67 212.99 -143.34 213.98 -143 215 C-141.68 213.35 -140.36 211.7 -139 210 C-139.33 209.34 -139.66 208.68 -140 208 Z M-146 215 C-145.67 215.66 -145.34 216.32 -145 217 C-144.67 216.34 -144.34 215.68 -144 215 C-144.66 215 -145.32 215 -146 215 Z M-203 231 C-202 233 -202 233 -202 233 Z M-204 234 C-206.81552726 240.78743178 -207.3689719 246.68889006 -207 254 C-206.01 253.67 -205.02 253.34 -204 253 C-203.67 252.01 -203.34 251.02 -203 250 C-203.33 249.67 -203.66 249.34 -204 249 C-204.20877927 243.88490796 -203.70869772 239.04947127 -203 234 C-203.33 234 -203.66 234 -204 234 Z " fill="#444444" transform="translate(355,82)"/>
<path d="M0 0 C0 0.66 0 1.32 0 2 C0.804375 2.28875 1.60875 2.5775 2.4375 2.875 C5 4 5 4 6 6 C7.71949285 19.13579785 1.96873726 33.10761245 -3 45 C-4.65 44.67 -6.3 44.34 -8 44 C-7.7525 42.824375 -7.7525 42.824375 -7.5 41.625 C-6.79887304 38.18731237 -6.79887304 38.18731237 -8.0625 35.0625 C-9 33 -9 33 -8 30 C-8.7460698 28.1197899 -8.7460698 28.1197899 -9.9375 26.3125 C-10.9584375 24.6728125 -10.9584375 24.6728125 -12 23 C-12.99 23 -13.98 23 -15 23 C-14.67 24.65 -14.34 26.3 -14 28 C-15.32 28.33 -16.64 28.66 -18 29 C-18.625 26.1875 -18.625 26.1875 -19 23 C-18.34 22.01 -17.68 21.02 -17 20 C-19.31 19.01 -21.62 18.02 -24 17 C-24.33 18.32 -24.66 19.64 -25 21 C-25.268125 20.278125 -25.53625 19.55625 -25.8125 18.8125 C-26.98982498 16.02409874 -28.39145884 13.55904276 -30 11 C-30.66 12.65 -31.32 14.3 -32 16 C-30.68 16.66 -29.36 17.32 -28 18 C-28.66 18.33 -29.32 18.66 -30 19 C-29.34 19.66 -28.68 20.32 -28 21 C-31.96 21.495 -31.96 21.495 -36 22 C-36 21.34 -36 20.68 -36 20 C-36.66 19.67 -37.32 19.34 -38 19 C-38.375 16.8125 -38.375 16.8125 -38 14 C-32.1476324 8.48155127 -25.22231161 5.36457909 -18 2 C-16.55367188 1.32130859 -16.55367188 1.32130859 -15.078125 0.62890625 C-9.54324493 -1.79470033 -5.67387121 -2.83693561 0 0 Z M-10 30 C-9.34 30.33 -8.68 30.66 -8 31 C-9.32 31.33 -10.64 31.66 -12 32 C-11.34 31.34 -10.68 30.68 -10 30 Z " fill="#494949" transform="translate(355,82)"/>
<path d="M0 0 C0.75539062 0.25910156 1.51078125 0.51820313 2.2890625 0.78515625 C3.15015625 1.0790625 4.01125 1.37296875 4.8984375 1.67578125 C10.64025026 3.90705564 16.28721978 6.34233291 21.9140625 8.84765625 C22.0390625 14.59765625 22.0390625 14.59765625 20.9140625 16.84765625 C16.59991778 16.16561051 12.74073476 14.69390512 8.7265625 13.03515625 C7.39844336 12.49477727 6.07031834 11.95441273 4.7421875 11.4140625 C4.09443359 11.14867676 3.44667969 10.88329102 2.77929688 10.60986328 C0.18423471 9.54942034 -2.41930428 8.51058935 -5.0234375 7.47265625 C-7.0546875 6.66015625 -7.0546875 6.66015625 -9.0859375 5.84765625 C-8.4259375 5.51765625 -7.7659375 5.18765625 -7.0859375 4.84765625 C-6.7559375 4.18765625 -6.4259375 3.52765625 -6.0859375 2.84765625 C-2.83951791 -0.20738052 -2.83951791 -0.20738052 0 0 Z " fill="#4B4B4B" transform="translate(168.0859375,185.15234375)"/>
<path d="M0 0 C0.66 0 1.32 0 2 0 C3.31990973 1.7836618 4.55572191 3.62989012 5.75 5.5 C8.54290903 9.80573476 11.39103921 13.96692888 14.578125 17.98828125 C16 20 16 20 17.87109375 23.33984375 C19.87806136 26.91046717 22.25573654 30.04498628 24.8125 33.25 C28.52857678 37.98004455 31.86376578 42.7946931 35.01953125 47.921875 C37.56656405 51.88057687 40.3159711 55.67821467 43.0625 59.5 C47.5632749 65.78340474 51.57901401 72.05299774 55 79 C54.01 79.99 53.02 80.98 52 82 C51.814375 81.071875 51.62875 80.14375 51.4375 79.1875 C48.67164725 69.74220693 41.43256354 61.84130285 35.55639648 54.12866211 C31.41285609 48.65213485 27.67603909 42.99428457 24.0234375 37.18359375 C21.66070607 33.46616882 19.15346084 29.87292763 16.60546875 26.28125 C14.57393589 23.39459504 12.63072765 20.45433703 10.6875 17.5078125 C9.35448591 15.52680545 8.00040822 13.56857503 6.625 11.6171875 C6.21233887 11.02977783 5.79967773 10.44236816 5.37451172 9.8371582 C4.55193156 8.66886294 3.72552504 7.50325091 2.89501953 6.34057617 C0 2.22179248 0 2.22179248 0 0 Z " fill="#292929" transform="translate(289,273)"/>
<path d="M0 0 C12.07836018 1.78146905 23.36115131 6.98413207 34.40625 11.9921875 C35.57486572 12.5195752 35.57486572 12.5195752 36.76708984 13.05761719 C38.29102709 13.74747571 39.81239351 14.44305456 41.33056641 15.14550781 C45.13527991 16.87081185 48.87584557 18.31422311 52.89453125 19.46484375 C58.3202335 21.02282232 63.40166719 23.16612685 68.5625 25.4375 C69.44357422 25.81970703 70.32464844 26.20191406 71.23242188 26.59570312 C76.83590364 29.03146014 82.4201291 31.51070232 88 34 C88 35.32 88 36.64 88 38 C87.34 38 86.68 38 86 38 C86 37.01 86 36.02 86 35 C85.43700195 34.87020752 84.87400391 34.74041504 84.29394531 34.60668945 C80.00047125 33.47117614 75.89609248 31.76737341 71.75 30.1875 C70.83347656 29.84396484 69.91695313 29.50042969 68.97265625 29.14648438 C64.05896428 27.27844028 59.34558612 25.24961445 54.67578125 22.8371582 C52.70610016 21.85317853 50.73248464 21.13307839 48.625 20.5 C43.64161733 18.91865216 38.83706809 16.97845864 34 15 C29.38717672 13.12186582 24.76802267 11.27501722 20.09375 9.5546875 C13.19911758 7.0159974 6.47632106 4.50800724 0 1 C0 0.67 0 0.34 0 0 Z " fill="#2E2E2E" transform="translate(104,159)"/>
<path d="M0 0 C2.39061538 3.73533653 2.71457302 6.64110458 2 11 C0.20027257 13.46209685 -1.77659872 15.59161297 -3.90234375 17.77734375 C-5.7982887 19.78626866 -7.25905653 21.74896703 -8.75 24.0625 C-9.86375 25.5165625 -9.86375 25.5165625 -11 27 C-12.32 27 -13.64 27 -15 27 C-15.33 26.01 -15.66 25.02 -16 24 C-16.66 23.34 -17.32 22.68 -18 22 C-17.566875 21.51789063 -17.13375 21.03578125 -16.6875 20.5390625 C-15.8521875 19.59160156 -15.8521875 19.59160156 -15 18.625 C-14.443125 17.99851563 -13.88625 17.37203125 -13.3125 16.7265625 C-11.79827513 15.09610167 -11.79827513 15.09610167 -12 13 C-12 12.34 -12 11.68 -12 11 C-9.92446352 10.4465236 -8.15634036 10 -6 10 C-2.38019915 6.90992611 -0.41317222 4.82034262 0 0 Z " fill="#515151" transform="translate(281,209)"/>
<path d="M0 0 C4.34820864 1.48857593 6.0408022 4.72799932 8.25 8.5 C8.79527344 9.39138672 8.79527344 9.39138672 9.3515625 10.30078125 C12 14.71152491 12 14.71152491 12 17 C11.01 17.33 10.02 17.66 9 18 C9 19.65 9 21.3 9 23 C6.74754119 20.31158141 5.11786042 18.35358125 4 15 C3.34 15 2.68 15 2 15 C0.71993203 13.21601386 -0.47660351 11.37146094 -1.625 9.5 C-2.57246094 7.96859375 -2.57246094 7.96859375 -3.5390625 6.40625 C-4.02117187 5.6121875 -4.50328125 4.818125 -5 4 C-4.01 4 -3.02 4 -2 4 C-1.67 4.66 -1.34 5.32 -1 6 C-0.34 4.68 0.32 3.36 1 2 C0.34 1.67 -0.32 1.34 -1 1 C-0.67 0.67 -0.34 0.34 0 0 Z " fill="#4D4D4D" transform="translate(309,306)"/>
<path d="M0 0 C-1.39588173 4.04224085 -3.30564036 6.94148485 -6 10.25 C-7.051875 11.55710937 -7.051875 11.55710937 -8.125 12.890625 C-10 15 -10 15 -12 16 C-14.31 14.35 -16.62 12.7 -19 11 C-17.73058503 7.08597051 -16.48832306 5.20927127 -13 3 C-12.34 3.66 -11.68 4.32 -11 5 C-10.34 4.34 -9.68 3.68 -9 3 C-8.01 3 -7.02 3 -6 3 C-6 2.34 -6 1.68 -6 1 C-3.92446352 0.4465236 -2.15634036 0 0 0 Z " fill="#4B4B4B" transform="translate(153,345)"/>
<path d="M0 0 C1.65 0.33 3.3 0.66 5 1 C5 1.99 5 2.98 5 4 C5.66 4 6.32 4 7 4 C5.59601721 8.10110762 3.62912962 10.98089159 0.875 14.3125 C0.15054688 15.19550781 -0.57390625 16.07851563 -1.3203125 16.98828125 C-1.87460938 17.65214844 -2.42890625 18.31601562 -3 19 C-3.99 18.67 -4.98 18.34 -6 18 C-6.3721042 16.67696283 -6.70630173 15.34262065 -7 14 C-7.66 13.67 -8.32 13.34 -9 13 C-8.07038578 11.84775972 -7.1309875 10.70340824 -6.1875 9.5625 C-5.66542969 8.92441406 -5.14335937 8.28632813 -4.60546875 7.62890625 C-3 6 -3 6 0 5 C0 3.35 0 1.7 0 0 Z " fill="#4C4C4C" transform="translate(218,286)"/>
<path d="M0 0 C0.5534764 2.07553648 1 3.84365964 1 6 C-0.66666667 7.66666667 -2.33333333 9.33333333 -4 11 C-5.43645379 12.95045643 -6.7103633 14.94613415 -8 17 C-6.68 16.67 -5.36 16.34 -4 16 C-4 20.38968456 -6.12805101 21.76905739 -9 25 C-9.99 24.67 -10.98 24.34 -12 24 C-14.6569191 24.87914688 -14.6569191 24.87914688 -17 26 C-17 22 -17 22 -15 19 C-14.34 19 -13.68 19 -13 19 C-12.73960937 18.43023437 -12.47921875 17.86046875 -12.2109375 17.2734375 C-10.89944765 14.81122107 -9.37148389 12.79857165 -7.625 10.625 C-4.89538269 7.17736227 -2.37220793 3.70064437 0 0 Z " fill="#525252" transform="translate(229,199)"/>
<path d="M0 0 C0.703125 1.71875 0.703125 1.71875 1 4 C-0.328125 6.21875 -0.328125 6.21875 -2.25 8.5 C-2.87390625 9.2528125 -3.4978125 10.005625 -4.140625 10.78125 C-4.75421875 11.5134375 -5.3678125 12.245625 -6 13 C-6.53109375 13.7528125 -7.0621875 14.505625 -7.609375 15.28125 C-8.29773438 16.13203125 -8.29773438 16.13203125 -9 17 C-9.66 17 -10.32 17 -11 17 C-11.33 17.99 -11.66 18.98 -12 20 C-12.268125 19.401875 -12.53625 18.80375 -12.8125 18.1875 C-13.98493467 16.02775192 -15.19369282 14.64209744 -17 13 C-16.34 13 -15.68 13 -15 13 C-14.79375 12.21625 -14.5875 11.4325 -14.375 10.625 C-13 8 -13 8 -10.125 6.625 C-7.18642013 6.03728403 -5.74578671 5.94392819 -3 7 C-2.690625 6.030625 -2.38125 5.06125 -2.0625 4.0625 C-1 1 -1 1 0 0 Z " fill="#535353" transform="translate(321,166)"/>
<path d="M0 0 C1.65 0 3.3 0 5 0 C6.1184904 3.3554712 6.22294266 5.65729007 5 9 C2.1875 11.8125 2.1875 11.8125 -1 14 C-2.32 14 -3.64 14 -5 14 C-5 13.34 -5 12.68 -5 12 C-5.66 11.67 -6.32 11.34 -7 11 C-6.34 10.236875 -5.68 9.47375 -5 8.6875 C-2.70149462 6.15722061 -2.70149462 6.15722061 -3 3 C-2.34 3 -1.68 3 -1 3 C-0.67 2.01 -0.34 1.02 0 0 Z " fill="#4D4D4D" transform="translate(323,154)"/>
<path d="M0 0 C0.66 0 1.32 0 2 0 C3.31990973 1.7836618 4.55572191 3.62989012 5.75 5.5 C8.14906686 9.19856141 10.55329417 12.82466874 13.25 16.3125 C15.43447664 19.16054078 17.21286689 22.04914024 18.921875 25.19921875 C20.64757276 28.08163421 22.74201016 30.6724831 24.828125 33.30078125 C26 35 26 35 26 37 C25.34 37 24.68 37 24 37 C22.49344036 35.05051183 21.11187412 33.1098207 19.75 31.0625 C19.34523438 30.46566406 18.94046875 29.86882812 18.5234375 29.25390625 C17.34155908 27.50743623 16.1690213 25.75509481 15 24 C14.46890625 23.20464844 13.9378125 22.40929687 13.390625 21.58984375 C12.46313766 20.19600744 11.53865683 18.80016587 10.6171875 17.40234375 C9.31012918 15.46069914 7.98105512 13.54183835 6.6328125 11.62890625 C6.21902344 11.03980469 5.80523437 10.45070313 5.37890625 9.84375 C4.55474596 8.67298024 3.72672593 7.5049163 2.89453125 6.33984375 C0 2.22185084 0 2.22185084 0 0 Z " fill="#242424" transform="translate(289,273)"/>
<path d="M0 0 C1.32 0.33 2.64 0.66 4 1 C4.8125 3.6875 4.8125 3.6875 5 7 C2.75 9.875 2.75 9.875 0 12 C-0.99 12 -1.98 12 -3 12 C-3.33 11.01 -3.66 10.02 -4 9 C-4.66 8.34 -5.32 7.68 -6 7 C-4.02 4.69 -2.04 2.38 0 0 Z " fill="#545454" transform="translate(269,224)"/>
<path d="M0 0 C1.75881567 3.28312259 3 6.23856995 3 10 C2.34 10 1.68 10 1 10 C1 10.99 1 11.98 1 13 C-0.65 13 -2.3 13 -4 13 C-4 12.34 -4 11.68 -4 11 C-5.32 11.33 -6.64 11.66 -8 12 C-7.59007812 11.46890625 -7.18015625 10.9378125 -6.7578125 10.390625 C-6.21898437 9.68421875 -5.68015625 8.9778125 -5.125 8.25 C-4.59132812 7.55390625 -4.05765625 6.8578125 -3.5078125 6.140625 C-2.10761086 4.15277397 -1.02144735 2.20156614 0 0 Z " fill="#4C4C4C" transform="translate(195,242)"/>
<path d="M0 0 C1.32 0.99 2.64 1.98 4 3 C3.625 5.4375 3.625 5.4375 3 8 C2.01 8.495 2.01 8.495 1 9 C2.65 9 4.3 9 6 9 C4.68 10.32 3.36 11.64 2 13 C-0.31 11.35 -2.62 9.7 -5 8 C-3.8141763 4.62496331 -2.72426311 2.35277269 0 0 Z " fill="#575757" transform="translate(139,348)"/>
<path d="M0 0 C0.93423645 3.01031744 1.04449911 3.86650268 0 7 C1.32 7.66 2.64 8.32 4 9 C3.01 9.495 3.01 9.495 2 10 C2.66 10.66 3.32 11.32 4 12 C1.36 12.33 -1.28 12.66 -4 13 C-4 12.34 -4 11.68 -4 11 C-4.66 10.67 -5.32 10.34 -6 10 C-6.375 7.8125 -6.375 7.8125 -6 5 C-4.16038352 3.00977164 -2.20813852 1.61010101 0 0 Z " fill="#5C5C5C" transform="translate(323,91)"/>
<path d="M0 0 C0.99 0.33 1.98 0.66 3 1 C4.35384615 7.4 4.35384615 7.4 2.5625 10.4375 C2.046875 10.953125 1.53125 11.46875 1 12 C0.01 11.67 -0.98 11.34 -2 11 C-2.3721042 9.67696283 -2.70630173 8.34262065 -3 7 C-3.66 6.67 -4.32 6.34 -5 6 C-3.35 4.02 -1.7 2.04 0 0 Z " fill="#545454" transform="translate(214,293)"/>
<path d="M0 0 C3 0 3 0 5 1 C5.875 3.3125 5.875 3.3125 6 6 C4.0625 8.3125 4.0625 8.3125 2 10 C-0.4375 9.1875 -0.4375 9.1875 -3 8 C-3.33 7.01 -3.66 6.02 -4 5 C-2.25 2.3125 -2.25 2.3125 0 0 Z " fill="#4E4E4E" transform="translate(205,230)"/>
<path d="M0 0 C2 2 2 2 2 5 C2.99 5.33 3.98 5.66 5 6 C4.34 6 3.68 6 3 6 C3 6.99 3 7.98 3 9 C2.34 9 1.68 9 1 9 C0.34 10.65 -0.32 12.3 -1 14 C-2.5625 12.25 -2.5625 12.25 -4 10 C-3.6875 7.9375 -3.6875 7.9375 -3 6 C-3 5.01 -3 4.02 -3 3 C-2.34 3 -1.68 3 -1 3 C-0.67 2.01 -0.34 1.02 0 0 Z " fill="#585858" transform="translate(333,144)"/>
<path d="M0 0 C0.66 0.99 1.32 1.98 2 3 C1.125 5.5 1.125 5.5 0 8 C0 8.99 0 9.98 0 11 C0.99 11.33 1.98 11.66 3 12 C2.67 13.65 2.34 15.3 2 17 C1.01 17 0.02 17 -1 17 C-1 16.34 -1 15.68 -1 15 C-2.32 14.67 -3.64 14.34 -5 14 C-4.70351563 13.44828125 -4.40703125 12.8965625 -4.1015625 12.328125 C-2.92371196 9.83876712 -2.14034283 7.3939116 -1.375 4.75 C-1.11460937 3.85796875 -0.85421875 2.9659375 -0.5859375 2.046875 C-0.39257812 1.37140625 -0.19921875 0.6959375 0 0 Z " fill="#393939" transform="translate(348,115)"/>
<path d="M0 0 C1.53202706 0.25195908 3.05257128 0.57596777 4.5625 0.9375 C5.38878906 1.13214844 6.21507812 1.32679688 7.06640625 1.52734375 C8.02353516 1.76130859 8.02353516 1.76130859 9 2 C8.0409375 2.1546875 8.0409375 2.1546875 7.0625 2.3125 C6.381875 2.539375 5.70125 2.76625 5 3 C4.67 3.99 4.34 4.98 4 6 C3.01 6.495 3.01 6.495 2 7 C1.67 7.99 1.34 8.98 1 10 C0.01 9.67 -0.98 9.34 -2 9 C-1.125 1.125 -1.125 1.125 0 0 Z " fill="#606060" transform="translate(318,223)"/>
<path d="M0 0 C2.4375 0.8125 2.4375 0.8125 5 2 C5.33 2.99 5.66 3.98 6 5 C5.67 5.66 5.34 6.32 5 7 C4.34 7 3.68 7 3 7 C2.67 7.99 2.34 8.98 2 10 C1.731875 9.401875 1.46375 8.80375 1.1875 8.1875 C0.01506533 6.02775192 -1.19369282 4.64209744 -3 3 C-2.34 3 -1.68 3 -1 3 C-0.67 2.01 -0.34 1.02 0 0 Z " fill="#5B5B5B" transform="translate(307,176)"/>
<path d="M0 0 C0.5534764 2.07553648 1 3.84365964 1 6 C-0.64429829 7.68873879 -2.31384218 9.35305515 -4 11 C-4.53625 11.763125 -5.0725 12.52625 -5.625 13.3125 C-6.305625 14.1478125 -6.305625 14.1478125 -7 15 C-7.99 15 -8.98 15 -10 15 C-8.46535784 11.54705514 -6.37011726 8.92779191 -4 6 C-2.62645781 4.02378113 -1.31351761 2.01718776 0 0 Z " fill="#696969" transform="translate(229,199)"/>
<path d="M0 0 C0.99 0.33 1.98 0.66 3 1 C2.34 4.3 1.68 7.6 1 11 C-3.875 6.375 -3.875 6.375 -5 3 C-4.360625 2.87625 -3.72125 2.7525 -3.0625 2.625 C-2.0415625 2.315625 -2.0415625 2.315625 -1 2 C-0.67 1.34 -0.34 0.68 0 0 Z " fill="#595959" transform="translate(325,329)"/>
<path d="M0 0 C1.61949011 2.57213134 2.04408751 3.67669159 1.625 6.75 C1.41875 7.4925 1.2125 8.235 1 9 C0.01 9.33 -0.98 9.66 -2 10 C-2.33 7.36 -2.66 4.72 -3 2 C-2.01 1.34 -1.02 0.68 0 0 Z " fill="#565656" transform="translate(214,373)"/>
<path d="M0 0 C1.32 0.33 2.64 0.66 4 1 C3.67 1.99 3.34 2.98 3 4 C2.34 4 1.68 4 1 4 C1.33 5.65 1.66 7.3 2 9 C0.68 9.33 -0.64 9.66 -2 10 C-2.6875 7.25 -2.6875 7.25 -3 4 C-1.5625 1.625 -1.5625 1.625 0 0 Z " fill="#6A6A6A" transform="translate(339,101)"/>
<path d="M0 0 C5.90625 5.625 5.90625 5.625 6.1875 9.75 C6.125625 10.4925 6.06375 11.235 6 12 C5.34 11.34 4.68 10.68 4 10 C4 9.01 4 8.02 4 7 C2.35 7 0.7 7 -1 7 C-1 4.37886292 -0.68707555 2.49064888 0 0 Z " fill="#3D3D3D" transform="translate(324,92)"/>
<path d="M0 0 C2.95749791 3.46741134 5.07848152 6.86873527 7 11 C6.01 11.99 5.02 12.98 4 14 C3.731875 12.9275 3.46375 11.855 3.1875 10.75 C2.25184124 7.07759146 2.25184124 7.07759146 0.3125 4.75 C-0.120625 4.1725 -0.55375 3.595 -1 3 C-0.67 2.01 -0.34 1.02 0 0 Z " fill="#303030" transform="translate(337,341)"/>
<path d="M0 0 C0.66 0 1.32 0 2 0 C1.49202991 4.3177458 0.80317221 8.03302114 -1 12 C-1.66 11.34 -2.32 10.68 -3 10 C-2.67342446 6.24438133 -1.8830622 3.26397448 0 0 Z " fill="#2C2C2C" transform="translate(155,302)"/>
<path d="M0 0 C1.04421849 2.71496807 0.96158564 4.21341309 0.4375 7.125 C-1 10 -1 10 -4.125 11.375 C-5.07375 11.58125 -6.0225 11.7875 -7 12 C-7 10 -7 10 -5.625 8.375 C-4 7 -4 7 -2 7 C-2.33 6.01 -2.66 5.02 -3 4 C-1.5625 1.8125 -1.5625 1.8125 0 0 Z " fill="#373737" transform="translate(244,180)"/>
<path d="M0 0 C0.33 0.99 0.66 1.98 1 3 C-0.80078125 5.69921875 -0.80078125 5.69921875 -3.3125 8.6875 C-4.54419922 10.17830078 -4.54419922 10.17830078 -5.80078125 11.69921875 C-6.52652344 12.45847656 -7.25226563 13.21773438 -8 14 C-8.66 14 -9.32 14 -10 14 C-8.43632643 10.47761953 -6.30504111 7.72876006 -3.875 4.75 C-3.15054688 3.85796875 -2.42609375 2.9659375 -1.6796875 2.046875 C-0.84824219 1.03367187 -0.84824219 1.03367187 0 0 Z " fill="#2C2C2C" transform="translate(167,312)"/>
<path d="M0 0 C2.1640625 -0.29296875 2.1640625 -0.29296875 4.625 -0.1875 C5.44226563 -0.16042969 6.25953125 -0.13335937 7.1015625 -0.10546875 C8.04128906 -0.05326172 8.04128906 -0.05326172 9 0 C8.01 0.495 8.01 0.495 7 1 C7 1.99 7 2.98 7 4 C5.35 4 3.7 4 2 4 C2 3.34 2 2.68 2 2 C0.68 2.33 -0.64 2.66 -2 3 C-1.34 2.01 -0.68 1.02 0 0 Z " fill="#5B5B5B" transform="translate(189,251)"/>
<path d="M0 0 C3.3 0 6.6 0 10 0 C9.34 1.32 8.68 2.64 8 4 C5.23723823 3.47731534 2.6739124 2.89130413 0 2 C0 1.34 0 0.68 0 0 Z " fill="#5C5C5C" transform="translate(195,204)"/>
<path d="M0 0 C2.97 0.495 2.97 0.495 6 1 C5.67 1.99 5.34 2.98 5 4 C3.35 4.33 1.7 4.66 0 5 C-0.33 4.01 -0.66 3.02 -1 2 C-0.67 1.34 -0.34 0.68 0 0 Z " fill="#575757" transform="translate(264,250)"/>
<path d="M0 0 C2.97 0.495 2.97 0.495 6 1 C5.67 2.65 5.34 4.3 5 6 C4.34 5.67 3.68 5.34 3 5 C3 4.34 3 3.68 3 3 C2.01 3 1.02 3 0 3 C0 2.01 0 1.02 0 0 Z " fill="#404040" transform="translate(304,307)"/>
<path d="M0 0 C2.0625 0.4375 2.0625 0.4375 4 1 C4.33 2.98 4.66 4.96 5 7 C4.01 7.495 4.01 7.495 3 8 C2.566875 6.5459375 2.566875 6.5459375 2.125 5.0625 C1.35785318 1.89335797 1.35785318 1.89335797 -1 1 C-0.67 0.67 -0.34 0.34 0 0 Z " fill="#606060" transform="translate(269,224)"/>
<path d="M0 0 C0.66 0 1.32 0 2 0 C0.50163895 3.11198065 -1.19933758 6.0534615 -3 9 C-3.99 8.67 -4.98 8.34 -6 8 C-5.34 8 -4.68 8 -4 8 C-3.8453125 7.13375 -3.8453125 7.13375 -3.6875 6.25 C-2.89103535 3.64338842 -1.80934723 2.0264689 0 0 Z " fill="#2F2F2F" transform="translate(172,320)"/>
<path d="M0 0 C0.66 0 1.32 0 2 0 C2.66 0.99 3.32 1.98 4 3 C3.67 3.99 3.34 4.98 3 6 C2.67 5.01 2.34 4.02 2 3 C0.35 3.66 -1.3 4.32 -3 5 C-1.125 1.125 -1.125 1.125 0 0 Z " fill="#323232" transform="translate(285,267)"/>
<path d="M0 0 C0.99 0 1.98 0 3 0 C2.37240135 2.92879371 1.41377341 5.36095629 0 8 C-1.125 6.25 -1.125 6.25 -2 4 C-1.125 1.75 -1.125 1.75 0 0 Z " fill="#3E3E3E" transform="translate(333,238)"/>
<path d="M0 0 C0.99 0.33 1.98 0.66 3 1 C1.1875 3.5 1.1875 3.5 -1 6 C-1.99 6 -2.98 6 -4 6 C-2.84826645 3.53199953 -1.95216435 1.95216435 0 0 Z " fill="#636363" transform="translate(223,208)"/>
<path d="M0 0 C1.32 0.33 2.64 0.66 4 1 C4 1.66 4 2.32 4 3 C4.66 3.33 5.32 3.66 6 4 C6 4.66 6 5.32 6 6 C4.35 5.67 2.7 5.34 1 5 C0.67 3.35 0.34 1.7 0 0 Z " fill="#3A3A3A" transform="translate(314,165)"/>
<path d="M0 0 C0.66 0.99 1.32 1.98 2 3 C0.625 5 0.625 5 -1 7 C-1.66 7 -2.32 7 -3 7 C-2.67 5.35 -2.34 3.7 -2 2 C-1.34 2 -0.68 2 0 2 C0 1.34 0 0.68 0 0 Z " fill="#323232" transform="translate(286,211)"/>
<path d="M0 0 C2.97 0.33 5.94 0.66 9 1 C4.64467851 3.17766075 3.53374042 3.03039555 -1 2 C-0.67 1.34 -0.34 0.68 0 0 Z " fill="#303030" transform="translate(205,152)"/>
<path d="M0 0 C2.64 0 5.28 0 8 0 C6.68 1.32 5.36 2.64 4 4 C2.68 2.68 1.36 1.36 0 0 Z " fill="#6F6F6F" transform="translate(137,357)"/>
<path d="M0 0 C0.66 0.33 1.32 0.66 2 1 C1.6875 2.875 1.6875 2.875 1 5 C0.01 5.66 -0.98 6.32 -2 7 C-2.33 5.68 -2.66 4.36 -3 3 C-2.34 3 -1.68 3 -1 3 C-0.67 2.01 -0.34 1.02 0 0 Z " fill="#5C5C5C" transform="translate(336,238)"/>
<path d="M0 0 C1.98 0.495 1.98 0.495 4 1 C2.68 2.65 1.36 4.3 0 6 C-1.125 2.25 -1.125 2.25 0 0 Z " fill="#5A5A5A" transform="translate(289,191)"/>
<path d="M0 0 C0.66 1.32 1.32 2.64 2 4 C1.01 4.33 0.02 4.66 -1 5 C-1.99 4.01 -2.98 3.02 -4 2 C-2.68 1.34 -1.36 0.68 0 0 Z " fill="#5C5C5C" transform="translate(65,146)"/>
</svg>
