<?xml version="1.0" encoding="UTF-8"?>
<svg version="1.1" xmlns="http://www.w3.org/2000/svg" width="512" height="512">
<path d="M0 0 C4.34108982 3.7099687 7.19343815 8.31468946 8.98828125 13.69921875 C10.4036615 32.68553386 5.04310095 47.26960047 -4.01171875 63.69921875 C-4.35187012 64.32151367 -4.69202148 64.94380859 -5.04248047 65.58496094 C-18.69947791 90.25189883 -38.55892361 111.87664613 -58.86606789 131.23138428 C-62.38614767 134.59852615 -65.86840168 138.00493296 -69.35866261 141.40292358 C-72.40586645 144.36531582 -75.46480394 147.31353894 -78.55004883 150.23632812 C-81.56963815 153.09841897 -84.55346756 155.99375992 -87.51633263 158.91448975 C-88.64157879 160.0115202 -89.77914096 161.09607292 -90.92920876 162.16705322 C-97.50814136 167.99834438 -97.50814136 167.99834438 -100.25683594 175.980896 C-99.76540603 179.04456371 -99.02828542 181.77309771 -98.01171875 184.69921875 C-97.71023193 186.03389949 -97.42352659 187.3721215 -97.16015625 188.71484375 C-96.77730469 190.31585938 -96.77730469 190.31585938 -96.38671875 191.94921875 C-95.99613281 193.59664063 -95.99613281 193.59664063 -95.59765625 195.27734375 C-95.40429688 196.0765625 -95.2109375 196.87578125 -95.01171875 197.69921875 C-94.02171875 197.36921875 -93.03171875 197.03921875 -92.01171875 196.69921875 C-83.69024893 194.40249308 -76.60813714 195.74781336 -69.01171875 199.69921875 C-65.36378348 202.41811151 -62.17517406 205.43586485 -59.01171875 208.69921875 C-58.09519531 209.61960938 -58.09519531 209.61960938 -57.16015625 210.55859375 C-50.5221406 217.68710317 -49.39705791 224.68284899 -49.68359375 234.3125 C-50.84076908 246.25620255 -60.19187817 254.34803967 -68.65625 262.0390625 C-69.25638916 262.59819336 -69.85652832 263.15732422 -70.47485352 263.73339844 C-71.63986643 264.8113418 -72.82608877 265.86693447 -74.03491211 266.89550781 C-76.44567773 269.13560942 -77.92572897 270.55926131 -78.17993164 273.92919922 C-77.94270591 276.24603219 -77.5470092 278.43393549 -77.01171875 280.69921875 C-76.83511719 281.5809375 -76.65851563 282.46265625 -76.4765625 283.37109375 C-76.30253906 284.056875 -76.12851562 284.74265625 -75.94921875 285.44921875 C-75.2027778 288.60638753 -74.80110419 291.434693 -75.01171875 294.69921875 C-74.480625 294.42207031 -73.94953125 294.14492188 -73.40234375 293.859375 C-72.6959375 293.49714844 -71.98953125 293.13492187 -71.26171875 292.76171875 C-70.565625 292.40207031 -69.86953125 292.04242188 -69.15234375 291.671875 C-62.14137869 288.48623577 -53.99516984 288.6682063 -46.82421875 291.26171875 C-41.71344937 293.57084994 -37.9189157 296.72155132 -34.01171875 300.69921875 C-32.93857422 301.77429688 -32.93857422 301.77429688 -31.84375 302.87109375 C-25.40356287 309.67493444 -22.93353086 314.76193923 -22.57421875 324.13671875 C-22.85518767 334.27501403 -26.97608591 340.67849333 -34.01171875 347.69921875 C-35.96372057 349.2705962 -37.93545204 350.81765539 -39.92211914 352.3449707 C-51.67258206 361.45894171 -51.67258206 361.45894171 -57.66033936 374.49798584 C-57.44609885 383.89061908 -54.84183796 392.78005587 -52.10113525 401.71057129 C-50.80097924 406.05059212 -49.68920692 410.44190538 -48.54815006 414.82583332 C-47.65601447 418.23876358 -46.74051432 421.63753595 -45.7361908 425.01933289 C-40.76923333 442.19857049 -40.76923333 442.19857049 -43.96954346 450.0486908 C-46.86484368 455.16122687 -51.17415018 459.34530868 -55.32421875 463.44921875 C-55.95005859 464.09503906 -56.57589844 464.74085938 -57.22070312 465.40625 C-62.25654133 470.43692324 -67.70566304 474.80098331 -75.07421875 475.13671875 C-82.14385291 474.35120384 -86.34070269 471.95930954 -91.01171875 466.69921875 C-92.98556337 463.70376765 -94.71646464 460.58886488 -96.44921875 457.44921875 C-96.96363525 456.53317871 -97.47805176 455.61713867 -98.00805664 454.67333984 C-99.68349868 451.68612539 -101.34750655 448.69270136 -103.01171875 445.69921875 C-104.15663979 443.65443683 -105.30248017 441.61016942 -106.44921875 439.56640625 C-108.80566861 435.36527579 -111.15810691 431.16193723 -113.5078125 426.95703125 C-116.82414901 421.027352 -120.16417661 415.11132378 -123.51171875 409.19921875 C-128.62914461 400.15985998 -133.7110508 391.10107534 -138.78125 382.03515625 C-142.67329912 375.0795208 -146.58505647 368.13536671 -150.51171875 361.19921875 C-155.62906678 352.15981566 -160.71105055 343.10107579 -165.78125 334.03515625 C-170.19575409 326.14582078 -174.63525314 318.27095182 -179.09521484 310.40722656 C-182.03309978 305.22166642 -184.94609377 300.02323168 -187.83203125 294.80859375 C-188.46689453 293.66455078 -189.10175781 292.52050781 -189.75585938 291.34179688 C-190.98536391 289.12409244 -192.21080094 286.9041268 -193.43164062 284.68164062 C-193.98658203 283.68197266 -194.54152344 282.68230469 -195.11328125 281.65234375 C-195.60135254 280.76708008 -196.08942383 279.88181641 -196.59228516 278.96972656 C-197.90567073 276.8688518 -199.24008617 275.4040775 -201.01171875 273.69921875 C-201.58818272 274.27706541 -201.58818272 274.27706541 -202.17629242 274.86658573 C-211.55619933 284.26864078 -220.93895352 293.66784624 -230.32472992 303.06404209 C-234.86365586 307.60817693 -239.40165084 312.15323328 -243.9375 316.70043945 C-248.31841296 321.09225222 -252.701795 325.48158684 -257.08686829 329.86924553 C-258.75579703 331.54001576 -260.42384833 333.21166295 -262.09098816 334.88421822 C-264.4339621 337.23449678 -266.78009367 339.58158066 -269.12695312 341.92797852 C-269.80884705 342.61346771 -270.49074097 343.29895691 -271.19329834 344.00521851 C-275.07364708 347.87736679 -279.0582292 351.56866844 -283.21581268 355.14210415 C-286.61173043 358.08648593 -289.86699894 361.18877069 -293.11767578 364.29199219 C-296.36408103 367.34487808 -299.53762568 369.66738511 -303.38671875 371.94921875 C-305.48204702 373.42259461 -305.48204702 373.42259461 -307.01171875 375.69921875 C-307.31008801 379.01780378 -307.31008801 379.01780378 -306.86743164 382.76367188 C-306.80762399 383.46581062 -306.74781633 384.16794937 -306.68619633 384.89136505 C-306.48459025 387.16354492 -306.25175558 389.43079722 -306.01171875 391.69921875 C-305.89990831 392.80183548 -305.89990831 392.80183548 -305.78583908 393.92672729 C-305.309454 398.59012221 -304.78431158 403.24690461 -304.23922539 407.90272522 C-303.93625643 410.49546864 -303.63947715 413.08885891 -303.34425354 415.68249512 C-302.5055425 423.04406125 -301.65852992 430.40464559 -300.80200195 437.76416016 C-300.27441416 442.3010639 -299.75578905 446.83892332 -299.24241829 451.37745667 C-299.04764247 453.08393237 -298.84959117 454.7900381 -298.64791679 456.49571228 C-295.06644674 486.80662329 -295.06644674 486.80662329 -299.44921875 493.13671875 C-300.59799594 494.36171812 -301.78982067 495.54714342 -303.01171875 496.69921875 C-303.74648438 497.48039062 -304.48125 498.2615625 -305.23828125 499.06640625 C-314.05744352 508.29850589 -314.05744352 508.29850589 -319.94921875 509.09765625 C-320.95984375 509.08992187 -321.97046875 509.0821875 -323.01171875 509.07421875 C-324.02234375 509.08195313 -325.03296875 509.0896875 -326.07421875 509.09765625 C-330.56910138 508.48797802 -333.02526425 506.75613429 -336.08984375 503.47265625 C-338.3310017 500.2384649 -340.0695388 496.86335121 -341.76171875 493.32421875 C-342.46311059 491.88847493 -343.16627897 490.45359782 -343.87109375 489.01953125 C-344.22623047 488.29668945 -344.58136719 487.57384766 -344.94726562 486.82910156 C-346.56944708 483.58325042 -348.28637944 480.39109647 -350.01171875 477.19921875 C-353.82473658 470.11829927 -357.43011076 462.94395152 -360.99853516 455.73730469 C-362.03074517 453.66094584 -363.07248677 451.58963108 -364.1171875 449.51953125 C-375.01171875 427.91559463 -375.01171875 427.91559463 -375.01171875 424.69921875 C-376.09271851 425.18334229 -376.09271851 425.18334229 -377.19555664 425.67724609 C-380.4863097 427.14773444 -383.78021412 428.61102958 -387.07421875 430.07421875 C-388.20794922 430.58210938 -389.34167969 431.09 -390.50976562 431.61328125 C-408.71901887 439.68268794 -408.71901887 439.68268794 -418.13671875 436.44921875 C-423.60021679 434.17100335 -427.45552134 431.17447731 -430.20703125 425.78515625 C-433.90216974 416.20649628 -431.06317991 408.24517811 -427.16223145 399.24542236 C-425.59963451 395.78723369 -423.99320228 392.35014667 -422.38476562 388.91308594 C-422.06006287 388.21831146 -421.73536011 387.52353699 -421.40081787 386.80770874 C-420.60484577 385.10469441 -419.80833628 383.40193127 -419.01171875 381.69921875 C-419.97780563 381.22394745 -420.94389252 380.74867615 -421.93925476 380.25900269 C-431.05433275 375.77249459 -440.16193256 371.27112055 -449.26246929 366.75518608 C-453.94110232 364.43411452 -458.6221894 362.11831041 -463.30932617 359.81445312 C-467.83477987 357.58982728 -472.35320393 355.35148725 -476.867136 353.10358047 C-478.58822518 352.24948981 -480.31176666 351.40032206 -482.03778648 350.55624008 C-484.45989754 349.37068786 -486.87260039 348.16773518 -489.28393555 346.96044922 C-489.99531677 346.61734207 -490.706698 346.27423492 -491.43963623 345.92073059 C-496.7032365 343.25074325 -500.3142773 340.09410164 -503.01171875 334.69921875 C-503.58686144 329.01379184 -503.86969869 323.43833909 -500.54296875 318.51953125 C-493.61894987 310.28842717 -487.10486711 302.6975935 -476.01171875 301.69921875 C-472.73334062 301.8322287 -469.4969653 302.2057264 -466.24023438 302.59545898 C-465.28485275 302.70260223 -464.32947113 302.80974548 -463.34513855 302.9201355 C-460.20176809 303.27458266 -457.05995139 303.64128481 -453.91796875 304.0078125 C-451.7252381 304.25674472 -449.53240583 304.5047833 -447.33947754 304.75196838 C-441.57426021 305.40372608 -435.81022181 306.06534965 -430.04644775 306.72973633 C-420.82186378 307.79183855 -411.59581161 308.84099693 -402.36930847 309.88627815 C-399.15220524 310.25249232 -395.93576471 310.62414873 -392.71936035 310.9964447 C-390.74066018 311.22232345 -388.76194204 311.4480449 -386.78320312 311.67358398 C-385.89364426 311.77801315 -385.00408539 311.88244232 -384.08757019 311.99003601 C-379.38017859 312.52156117 -374.75547631 312.98072187 -370.01171875 312.69921875 C-367.74781923 310.88340991 -367.74781923 310.88340991 -366.01171875 308.19921875 C-362.15315437 303.08299943 -358.05515086 298.40375573 -353.63671875 293.76171875 C-352.44096131 292.50302671 -351.24565477 291.24390618 -350.05078125 289.984375 C-349.14283058 289.02825066 -349.14283058 289.02825066 -348.21653748 288.05281067 C-345.85958302 285.53681745 -343.55336706 282.9789647 -341.24243164 280.4206543 C-334.16762434 272.661561 -326.7183351 265.2803711 -319.28125 257.87109375 C-317.79459483 256.38630853 -316.30816389 254.90129877 -314.82194519 253.41607666 C-310.94943771 249.54734896 -307.07393464 245.68163625 -303.19775391 241.81658936 C-299.22699211 237.85614044 -295.2591343 233.89278434 -291.29101562 229.9296875 C-283.53405529 222.18338421 -275.7739204 214.44026972 -268.01171875 206.69921875 C-271.40164966 203.94092803 -274.69199511 201.62145911 -278.52734375 199.51953125 C-279.60081055 198.92769043 -280.67427734 198.33584961 -281.78027344 197.72607422 C-282.92915039 197.09846191 -284.07802734 196.47084961 -285.26171875 195.82421875 C-286.4719899 195.15827831 -287.68194601 194.49176503 -288.89160156 193.82470703 C-290.75604832 192.79666745 -292.62067913 191.76897891 -294.48626709 190.74301147 C-300.59496455 187.3835165 -306.68083439 183.98378195 -312.76171875 180.57421875 C-313.7887793 179.99881348 -314.81583984 179.4234082 -315.87402344 178.83056641 C-323.70978567 174.43734047 -331.53105218 170.01873895 -339.34863281 165.59326172 C-346.39177455 161.60842151 -353.44894326 157.64914134 -360.51171875 153.69921875 C-369.47106085 148.68862372 -378.41453849 143.65092824 -387.34765625 138.59375 C-394.39118303 134.6088506 -401.44870807 130.64946673 -408.51171875 126.69921875 C-418.531349 121.09316343 -428.54770252 115.48170806 -438.52734375 109.8046875 C-442.16734483 107.73474366 -445.82382999 105.69960001 -449.49609375 103.6875 C-451.2097566 102.73329052 -452.92330398 101.77887362 -454.63671875 100.82421875 C-455.41257324 100.40825439 -456.18842773 99.99229004 -456.98779297 99.5637207 C-462.43426757 96.49772379 -466.70413096 92.95806895 -468.61962891 86.71923828 C-470.00914356 79.56055567 -468.88056431 74.72850097 -465.01171875 68.69921875 C-462.40036337 65.56866489 -459.55631914 62.72856346 -456.63671875 59.88671875 C-455.89421875 59.13712891 -455.15171875 58.38753906 -454.38671875 57.61523438 C-448.84807035 52.14019236 -444.79193064 48.58729112 -436.74389648 48.43286133 C-429.94691823 48.4961438 -423.681665 49.84661909 -417.10437584 51.47535324 C-415.03407768 51.98543348 -412.95972978 52.47419102 -410.88301086 52.95742798 C-404.98923775 54.33088584 -399.10155392 55.72753732 -393.22436523 57.17041016 C-389.60579778 58.05722005 -385.98037717 58.90852169 -382.34824562 59.73793411 C-380.97481532 60.05879852 -379.60441503 60.39294727 -378.23758507 60.74085617 C-370.95694272 62.86657048 -370.95694272 62.86657048 -363.76515198 61.70407104 C-361.92265085 60.16512589 -360.4991658 58.57926589 -359.01171875 56.69921875 C-358.09463135 55.79864746 -357.17754395 54.89807617 -356.23266602 53.97021484 C-355.35666748 53.06352051 -354.48066895 52.15682617 -353.578125 51.22265625 C-352.58964247 50.21179958 -351.60069612 49.2013963 -350.61132812 48.19140625 C-349.08848926 46.63150877 -347.56901032 45.06880661 -346.05737305 43.49804688 C-338.07696551 35.22187735 -331.03843176 28.65962956 -318.88671875 28.38671875 C-308.50569201 28.50193547 -302.21581824 32.50982151 -295.01171875 39.69921875 C-294.38007813 40.31925781 -293.7484375 40.93929687 -293.09765625 41.578125 C-287.16073212 47.83084296 -283.89149198 54.51343742 -283.51171875 63.19921875 C-283.74187453 69.67119937 -286.15729916 74.99037957 -289.01171875 80.69921875 C-288.08552734 80.77269531 -288.08552734 80.77269531 -287.140625 80.84765625 C-281.98015277 81.30322305 -277.11704024 82.02496558 -272.1171875 83.39453125 C-269.40554827 83.78693915 -267.64948244 83.48111948 -265.01171875 82.69921875 C-262.62633161 80.8311287 -262.62633161 80.8311287 -260.39453125 78.40234375 C-259.53988281 77.52578125 -258.68523437 76.64921875 -257.8046875 75.74609375 C-256.92425781 74.823125 -256.04382813 73.90015625 -255.13671875 72.94921875 C-239.16256179 56.33798315 -239.16256179 56.33798315 -228.64453125 55.3984375 C-216.64600812 55.35835335 -211.06441603 57.05577135 -202.33984375 65.37890625 C-201.5715625 66.14460938 -200.80328125 66.9103125 -200.01171875 67.69921875 C-199.4084375 68.27929688 -198.80515625 68.859375 -198.18359375 69.45703125 C-192.93955827 74.93943198 -189.87305135 82.3422632 -189.63671875 89.94921875 C-190.01606474 93.74267861 -190.92217636 97.05578899 -192.01171875 100.69921875 C-188.43182853 101.56827597 -184.84738682 102.41684571 -181.26171875 103.26171875 C-180.2459375 103.50857422 -179.23015625 103.75542969 -178.18359375 104.00976562 C-176.7140625 104.35297852 -176.7140625 104.35297852 -175.21484375 104.703125 C-174.31411133 104.91783447 -173.41337891 105.13254395 -172.48535156 105.35375977 C-169.72073022 105.7398572 -168.60559595 105.71462273 -166.01171875 104.69921875 C-163.97349657 102.92465775 -162.10459253 101.15039879 -160.22436523 99.22070312 C-159.65623611 98.6497995 -159.08810699 98.07889587 -158.50276184 97.49069214 C-157.26955131 96.2494142 -156.03985142 95.00464084 -154.81326103 93.75682068 C-152.8633687 91.7731885 -150.90460288 89.79871483 -148.94337463 87.82629395 C-145.47744394 84.33754833 -142.01971257 80.84080249 -138.56451416 77.34143066 C-133.06116597 71.76805401 -127.55071343 66.20180298 -122.03053474 60.64509583 C-120.1168758 58.71493361 -118.20988916 56.77835771 -116.30332947 54.84118652 C-109.51717891 47.98023945 -102.61074529 41.6641898 -95.01171875 35.69921875 C-93.98252825 34.82595571 -92.95896377 33.94594085 -91.9453125 33.0546875 C-71.75842513 15.52147546 -28.11802013 -16.948513 0 0 Z M-83.01171875 49.69921875 C-83.92316178 50.43889263 -84.83460482 51.17856651 -85.77366734 51.94065475 C-97.31643026 61.47638512 -107.75840582 72.1661115 -118.31708372 82.75779343 C-121.16066475 85.60803097 -124.01009263 88.45241392 -126.85874939 91.2975769 C-132.41931867 96.85313708 -137.97458524 102.41396993 -143.52800154 107.97667935 C-150.00484404 114.4639661 -156.48697151 120.94596157 -162.96928025 127.42778549 C-174.53661547 138.99462151 -186.09913249 150.56626183 -197.65893555 162.140625 C-208.86135822 173.35715021 -220.06729239 184.57015172 -231.27709961 195.77929688 C-231.96842062 196.47057793 -232.65974164 197.16185899 -233.37201177 197.87408796 C-234.06217251 198.56420834 -234.75233324 199.25432872 -235.46340793 199.96536183 C-248.25385515 212.75511854 -261.04100846 225.548164 -273.82663379 238.34274091 C-278.3382318 242.85734869 -282.85079973 247.3709856 -287.36367607 251.88431549 C-292.86254153 257.38386439 -298.35950273 262.88530885 -303.85412502 268.38909724 C-306.65480095 271.19437596 -309.45623957 273.99888088 -312.25984955 276.80122757 C-314.82959133 279.36986758 -317.39698706 281.94082917 -319.96258319 284.51360974 C-321.32304522 285.8767204 -322.68592508 287.23741665 -324.04891008 288.59800458 C-328.36689579 292.93296104 -332.54709387 297.32764427 -336.52685696 301.97627521 C-338.89972757 304.72961032 -341.40072537 307.3609682 -343.88671875 310.01171875 C-348.31314914 314.77530923 -352.54696548 319.63990026 -356.6171875 324.71484375 C-358.3941256 326.92949417 -360.18667677 329.12414256 -362 331.30859375 C-383.03547572 356.73258202 -403.55783564 385.11702337 -414.01171875 416.69921875 C-412.52671875 418.18421875 -412.52671875 418.18421875 -411.01171875 419.69921875 C-401.51904401 416.6422557 -392.80403184 412.34195624 -384.01171875 407.69921875 C-383.34446777 407.34698242 -382.6772168 406.99474609 -381.98974609 406.63183594 C-361.88190236 395.90699726 -343.63679993 382.0744926 -326.01171875 367.69921875 C-325.13257813 366.99410156 -324.2534375 366.28898437 -323.34765625 365.5625 C-317.56751224 360.89767955 -312.01330272 356.04772215 -306.546875 351.01953125 C-304.47846117 349.12640672 -302.38765999 347.27670171 -300.26171875 345.44921875 C-286.2896381 333.24768559 -273.23318764 320.07220972 -260.12686419 306.95974791 C-257.35979215 304.19246889 -254.58984452 301.42807041 -251.8203125 298.66325378 C-246.4169199 293.26810163 -241.01624462 287.87023762 -235.61669047 282.47124413 C-231.22567421 278.08070567 -226.83386384 273.6909631 -222.44150925 269.30176353 C-209.95648499 256.82552351 -197.47353598 244.3472125 -184.99327941 231.86620323 C-184.32308998 231.19597384 -183.65290055 230.52574445 -182.96240234 229.83520508 C-181.95587707 228.82861848 -181.95587707 228.82861848 -180.92901795 227.8016968 C-170.03756492 216.90983671 -159.14112168 206.02298407 -148.24242826 195.13836936 C-137.02048678 183.93080881 -125.80229573 172.71950625 -114.58797395 161.50432128 C-108.30416773 155.22018394 -102.01885003 148.93757621 -95.72948074 142.65900612 C-90.38044163 137.31909407 -85.03491191 131.97569901 -79.69382079 126.62783674 C-76.97315247 123.90391593 -74.25094081 121.18158899 -71.52428818 118.46365738 C-68.56032157 115.50907323 -65.60426685 112.54669298 -62.64883423 109.58357239 C-61.37280096 108.31525447 -61.37280096 108.31525447 -60.07098925 107.02131397 C-55.07779138 101.99951579 -50.48674628 96.78299527 -46.06280649 91.25235671 C-43.98887702 88.67078599 -41.85283191 86.15195997 -39.69921875 83.63671875 C-25.90386789 66.75429637 -8.5749248 43.22746076 -8.01171875 20.69921875 C-8.71854485 17.95620885 -8.71854485 17.95620885 -10.01171875 15.69921875 C-30.69604881 4.56150256 -68.6885836 37.93369173 -83.01171875 49.69921875 Z M-330.01171875 53.69921875 C-331.14333297 54.79680969 -332.27624599 55.89306248 -333.41015625 56.98828125 C-334.61208055 58.16132412 -335.81259602 59.33581218 -337.01171875 60.51171875 C-337.60033691 61.08688232 -338.18895508 61.6620459 -338.79541016 62.25463867 C-340.24035245 63.6976612 -341.63115456 65.19448796 -343.01171875 66.69921875 C-343.01171875 67.35921875 -343.01171875 68.01921875 -343.01171875 68.69921875 C-332.12171875 71.00921875 -321.23171875 73.31921875 -310.01171875 75.69921875 C-303.05794912 68.81588124 -303.05794912 68.81588124 -302.01171875 60.69921875 C-304.63982445 55.44300736 -309.63183041 49.38916292 -315.01171875 46.69921875 C-322.37994103 45.52030319 -325.15617817 48.81204599 -330.01171875 53.69921875 Z M-439.22680664 67.77905273 C-439.7243042 68.32891846 -440.22180176 68.87878418 -440.734375 69.4453125 C-441.29189453 70.03505859 -441.84941406 70.62480469 -442.42382812 71.23242188 C-442.96845703 71.86083984 -443.51308594 72.48925781 -444.07421875 73.13671875 C-444.65365234 73.76126953 -445.23308594 74.38582031 -445.83007812 75.02929688 C-447.24783452 76.56422322 -448.63320748 78.12895166 -450.01171875 79.69921875 C-448.71270416 83.59626252 -447.3808994 83.88786242 -443.81640625 85.81640625 C-442.71989746 86.41654541 -441.62338867 87.01668457 -440.49365234 87.63500977 C-439.29135344 88.28143563 -438.08904192 88.92783802 -436.88671875 89.57421875 C-435.65126073 90.24752639 -434.41640334 90.92193723 -433.18212891 91.59741211 C-431.29296067 92.63112272 -429.40345538 93.66415063 -427.51205444 94.69377136 C-421.76818346 97.82106225 -416.07234853 101.02981329 -410.38671875 104.26171875 C-402.44199671 108.76543229 -394.4826498 113.24205689 -386.51171875 117.69921875 C-377.5523419 122.70975129 -368.60889868 127.74750945 -359.67578125 132.8046875 C-352.63225528 136.78958644 -345.57481158 140.74911869 -338.51171875 144.69921875 C-329.55237665 149.70981378 -320.60889901 154.74750926 -311.67578125 159.8046875 C-303.59687054 164.3753589 -295.5030811 168.91920463 -287.39379883 173.43579102 C-282.05485091 176.41369192 -276.74133995 179.42711848 -271.4609375 182.5078125 C-270.4090625 183.11689453 -269.3571875 183.72597656 -268.2734375 184.35351562 C-266.2661972 185.51781702 -264.26458502 186.69189119 -262.26953125 187.87695312 C-261.37363281 188.39451172 -260.47773438 188.91207031 -259.5546875 189.4453125 C-258.7711792 189.90607178 -257.9876709 190.36683105 -257.18041992 190.84155273 C-254.54529745 191.88367648 -253.64694167 191.62528104 -251.01171875 190.69921875 C-249.40372958 189.5289873 -249.40372958 189.5289873 -247.94915771 187.99742126 C-247.37149658 187.42388412 -246.79383545 186.85034698 -246.19866943 186.25942993 C-245.57720032 185.62717499 -244.9557312 184.99492004 -244.31542969 184.34350586 C-243.65160278 183.68011703 -242.98777588 183.01672821 -242.30383301 182.33323669 C-240.11073463 180.13804778 -237.92845417 177.93242265 -235.74609375 175.7265625 C-234.22788858 174.20276235 -232.70901985 172.67962306 -231.18951416 171.15711975 C-227.1912956 167.14744485 -223.20216764 163.12884249 -219.21484375 159.1083374 C-215.14475774 155.00756777 -211.06616982 150.9152737 -206.98828125 146.82226562 C-198.9877329 138.78953916 -190.99675915 130.74735919 -183.01171875 122.69921875 C-186.6402945 120.28016825 -190.16099825 119.61770193 -194.35522461 118.72924805 C-195.21922976 118.54086082 -196.08323492 118.35247358 -196.97342205 118.15837765 C-199.88986376 117.52403847 -202.80819826 116.89886735 -205.7265625 116.2734375 C-207.82869384 115.81785654 -209.93069036 115.36165312 -212.03256226 114.90487671 C-216.59487992 113.91459427 -221.15801759 112.92821481 -225.72183228 111.94485474 C-236.81212158 109.55515805 -247.89861682 107.14795244 -258.98548698 104.74245262 C-261.60942838 104.17328639 -264.23341312 103.60432551 -266.85748482 103.03576088 C-287.94358246 98.46687356 -309.0180413 93.84663009 -330.08652282 89.19721675 C-333.12811837 88.52609387 -336.169806 87.8553889 -339.21149963 87.18471068 C-352.60059058 84.23248099 -365.9894267 81.27912998 -379.37614107 78.31614017 C-384.98395897 77.07519447 -390.5925219 75.83765382 -396.20164537 74.60262299 C-399.45618694 73.88588535 -402.71021247 73.16698604 -405.96357346 72.4448967 C-409.51425347 71.65696849 -413.0661587 70.8748112 -416.6184082 70.09399414 C-417.64776961 69.86407115 -418.67713102 69.63414816 -419.7376852 69.3972578 C-429.6265717 66.65599924 -429.6265717 66.65599924 -439.22680664 67.77905273 Z M-245.01171875 89.69921875 C-237.29158828 91.65154956 -229.56812052 93.5931689 -221.82421875 95.44921875 C-220.82003906 95.6915625 -219.81585938 95.93390625 -218.78125 96.18359375 C-216.07802773 96.6868735 -213.75011753 96.9554987 -211.01171875 96.69921875 C-208.68965094 94.06754189 -208.04241287 92.38983641 -207.88671875 88.88671875 C-209.54285431 84.19433467 -212.54391281 81.18930182 -216.01171875 77.69921875 C-216.81609375 76.87421875 -217.62046875 76.04921875 -218.44921875 75.19921875 C-221.24198633 73.56442797 -223.50150242 72.82785178 -226.765625 72.98828125 C-234.29533558 75.37159834 -240.19485046 83.74151324 -245.01171875 89.69921875 Z M-117.01171875 188.69921875 C-126.04303209 197.5916881 -135.05820917 206.5001664 -144.05297947 215.42960644 C-148.22985672 219.57513295 -152.41214707 223.71487924 -156.60717773 227.84204102 C-160.65323891 231.82304763 -164.6845892 235.81841139 -168.70603752 239.82427406 C-170.24506609 241.35219163 -171.78937737 242.87480649 -173.33893013 244.39204979 C-175.50381335 246.51355907 -177.64936651 248.65292508 -179.79125977 250.79760742 C-180.440056 251.424832 -181.08885223 252.05205658 -181.75730896 252.69828796 C-183.34510428 254.3086939 -184.7745692 255.80644477 -186.01171875 257.69921875 C-185.96591992 261.78763935 -184.079268 264.75650841 -182.08984375 268.28515625 C-181.48325928 269.36877441 -180.8766748 270.45239258 -180.25170898 271.56884766 C-179.58852277 272.73738635 -178.92518895 273.90584128 -178.26171875 275.07421875 C-177.57761742 276.29052179 -176.89411275 277.50716061 -176.21118164 278.72412109 C-174.47881764 281.80721804 -172.73850445 284.88573736 -170.99517822 287.96264648 C-169.53275305 290.54496641 -168.07517324 293.13001538 -166.6171875 295.71484375 C-164.50078884 299.46417019 -162.38035393 303.21117946 -160.2578125 306.95703125 C-156.82201343 313.02635097 -153.41558182 319.11194647 -150.01171875 325.19921875 C-145.53142561 333.21046991 -141.0337264 341.21143882 -136.51171875 349.19921875 C-131.39437072 358.23862184 -126.31238695 367.29736171 -121.2421875 376.36328125 C-116.82000316 384.26634241 -112.37037956 392.15352592 -107.90625 400.03295898 C-105.10190253 404.98682521 -102.31152198 409.94790338 -99.54296875 414.921875 C-91.90451614 428.64045138 -84.07510979 442.22577475 -76.01171875 455.69921875 C-72.18299367 453.89894371 -69.26070219 451.52303278 -66.19921875 448.63671875 C-65.68423828 448.19650391 -65.16925781 447.75628906 -64.63867188 447.30273438 C-62.59838029 445.3607701 -61.04750968 443.68451139 -60.942132 440.78355694 C-61.76700244 434.87753973 -62.89272174 429.07878226 -64.19116211 423.2590332 C-64.41340926 422.24523559 -64.63565641 421.23143797 -64.86463833 420.18691921 C-65.60586237 416.81112415 -66.35372122 413.43683478 -67.1015625 410.0625 C-67.63522449 407.63821234 -68.16846796 405.21383251 -68.70132446 402.78936768 C-69.99506255 396.90799554 -71.29306445 391.02757974 -72.59313464 385.1476053 C-74.10544792 378.30698129 -75.61334236 371.46538583 -77.12086523 364.62370479 C-79.15518184 355.39138615 -81.1904066 346.15926891 -83.22834778 336.92774963 C-87.21481126 318.86814098 -91.18435741 300.80490425 -95.13908786 282.73832065 C-97.08543401 273.84725718 -99.03554251 264.95701864 -100.98594379 256.06684399 C-102.4225068 249.51814529 -103.85729301 242.96906656 -105.28805542 236.4190979 C-106.63026129 230.27560441 -107.97749121 224.1332343 -109.32859421 217.99169159 C-109.82334526 215.73846105 -110.31623517 213.48482094 -110.80714798 211.23075104 C-111.47533124 208.1638812 -112.15003097 205.09851697 -112.82641602 202.03344727 C-113.01998656 201.13740438 -113.21355711 200.24136148 -113.41299343 199.31816578 C-113.59543134 198.49782699 -113.77786924 197.67748819 -113.96583557 196.83229065 C-114.12065682 196.12555993 -114.27547808 195.41882921 -114.43499088 194.69068241 C-115.0600055 192.53248273 -115.95115087 190.67558214 -117.01171875 188.69921875 Z M-91.01171875 216.69921875 C-90.35318202 223.80993557 -89.09677249 230.66315627 -87.57421875 237.63671875 C-87.35701172 238.67634766 -87.13980469 239.71597656 -86.91601562 240.78710938 C-86.70138672 241.77775391 -86.48675781 242.76839844 -86.265625 243.7890625 C-86.07299072 244.68488037 -85.88035645 245.58069824 -85.68188477 246.50366211 C-85.14463104 248.87955304 -85.14463104 248.87955304 -83.01171875 250.69921875 C-80.88362617 248.59810199 -78.7591816 246.4935094 -76.63671875 244.38671875 C-76.0334375 243.79181641 -75.43015625 243.19691406 -74.80859375 242.58398438 C-74.22851562 242.00712891 -73.6484375 241.43027344 -73.05078125 240.8359375 C-72.51662598 240.30701904 -71.9824707 239.77810059 -71.43212891 239.2331543 C-68.39349356 235.95165793 -67.39699424 233.3748779 -67.49609375 228.890625 C-68.52553775 224.51548801 -71.8340012 221.6974418 -75.01171875 218.69921875 C-75.85734375 217.89484375 -76.70296875 217.09046875 -77.57421875 216.26171875 C-82.71984131 212.96324275 -86.13094765 213.11041647 -91.01171875 216.69921875 Z M-68.25878906 313.87963867 C-70.23679754 317.06125705 -70.1880507 318.54121805 -69.39764404 322.14460754 C-69.22388245 322.81876205 -69.05012085 323.49291656 -68.87109375 324.1875 C-68.71006165 324.8906987 -68.54902954 325.5938974 -68.38311768 326.31840515 C-67.86530658 328.55555122 -67.31417457 330.7829033 -66.76171875 333.01171875 C-66.4040204 334.53007543 -66.04852577 336.04895307 -65.6953125 337.56835938 C-64.8262042 341.28516714 -63.92713471 344.99355669 -63.01171875 348.69921875 C-59.68050331 347.24912189 -57.49115313 345.42444199 -54.9375 342.85546875 C-54.18791016 342.10394531 -53.43832031 341.35242188 -52.66601562 340.578125 C-51.89322266 339.79308594 -51.12042969 339.00804687 -50.32421875 338.19921875 C-49.53982422 337.41417969 -48.75542969 336.62914062 -47.94726562 335.8203125 C-42.81591611 330.99025925 -42.81591611 330.99025925 -40.51171875 324.57421875 C-41.226171 319.03721382 -44.09541968 316.47594322 -48.01171875 312.69921875 C-49.24921875 311.49265625 -49.24921875 311.49265625 -50.51171875 310.26171875 C-57.92243421 305.63002159 -62.51668661 308.30785282 -68.25878906 313.87963867 Z M-481.07421875 324.19921875 C-481.64269531 324.84890625 -482.21117187 325.49859375 -482.796875 326.16796875 C-483.19777344 326.67328125 -483.59867187 327.17859375 -484.01171875 327.69921875 C-480.6509483 330.43471971 -476.99601566 332.34229739 -473.13183594 334.25268555 C-472.44850189 334.5944986 -471.76516785 334.93631165 -471.06112671 335.28848267 C-468.81215862 336.41227255 -466.56041422 337.53037567 -464.30859375 338.6484375 C-462.744719 339.42850893 -461.18102103 340.20893484 -459.61749268 340.98970032 C-455.50932714 343.03997182 -451.39878151 345.08542623 -447.28771973 347.12988281 C-443.09010311 349.21844709 -438.89475801 351.31156362 -434.69921875 353.40429688 C-426.4722674 357.50705975 -418.24279415 361.60473667 -410.01171875 365.69921875 C-406.03131933 361.8248717 -406.03131933 361.8248717 -402.6875 357.421875 C-402.30319824 356.83220947 -401.91889648 356.24254395 -401.52294922 355.63500977 C-401.12736816 355.01682373 -400.73178711 354.3986377 -400.32421875 353.76171875 C-395.42630451 346.25376876 -390.2689374 338.95865472 -385.01171875 331.69921875 C-388.53055237 329.35332967 -391.46563916 329.08105433 -395.55322266 328.64599609 C-396.31948975 328.55792191 -397.08575684 328.46984772 -397.87524414 328.37910461 C-400.41208261 328.08970315 -402.95006589 327.8122011 -405.48828125 327.53515625 C-407.25611706 327.33680567 -409.0238877 327.13787351 -410.79159546 326.93838501 C-414.50162522 326.52148922 -418.21222139 326.11021314 -421.92333984 325.703125 C-426.66188589 325.18309257 -431.3990455 324.65152049 -436.13585854 324.11595726 C-439.7901654 323.70370946 -443.44502429 323.29654249 -447.10007858 322.89097977 C-448.84558804 322.69690864 -450.59095514 322.50155247 -452.3361702 322.30485153 C-454.78821138 322.02949063 -457.24089002 321.76071027 -459.69384766 321.49365234 C-460.40483612 321.41263779 -461.11582458 321.33162323 -461.84835815 321.24815369 C-472.42560872 319.5538015 -472.42560872 319.5538015 -481.07421875 324.19921875 Z M-326.01171875 390.69921875 C-326.71180054 391.21137939 -326.71180054 391.21137939 -327.42602539 391.73388672 C-336.32387709 398.23176741 -345.23233603 404.66567526 -354.50219727 410.62646484 C-357.79546748 412.64435519 -357.79546748 412.64435519 -360.01171875 415.69921875 C-358.99639189 418.11011796 -357.91603797 420.39352544 -356.72875977 422.71923828 C-356.36802368 423.44129456 -356.0072876 424.16335083 -355.63562012 424.9072876 C-354.43649773 427.30273658 -353.22612592 429.69231477 -352.015625 432.08203125 C-351.18395115 433.73792196 -350.35298119 435.39416639 -349.52268982 437.05075073 C-347.33169249 441.41744677 -345.13112925 445.77925409 -342.92858887 450.14013672 C-340.6842636 454.58792616 -338.44895018 459.04023856 -336.21289062 463.4921875 C-331.82134481 472.23233355 -327.41968746 480.96734521 -323.01171875 489.69921875 C-321.86545553 488.72055537 -320.71972087 487.74127288 -319.57421875 486.76171875 C-318.93613281 486.21644531 -318.29804688 485.67117188 -317.640625 485.109375 C-316.74180726 484.3312618 -315.85235347 483.53985347 -315.01171875 482.69921875 C-314.60220019 476.91449155 -315.15152159 471.12642525 -315.80615234 465.38134766 C-315.89072189 464.60456665 -315.97529144 463.82778564 -316.06242371 463.02746582 C-316.33986442 460.49297353 -316.62459862 457.95937092 -316.91015625 455.42578125 C-317.10734477 453.65223346 -317.30433248 451.87866333 -317.50112915 450.10507202 C-317.91300489 446.40477752 -318.32878143 442.70494588 -318.74707031 439.00537109 C-319.28287316 434.26170267 -319.80655421 429.51678205 -320.32709312 424.77141762 C-320.72977294 421.11628216 -321.13996065 417.46201855 -321.5523262 413.80796432 C-321.74867897 412.0579344 -321.94241678 410.30760904 -322.13349533 408.55699539 C-322.40069342 406.11728311 -322.67824624 403.67896528 -322.95849609 401.24072266 C-323.03546219 400.51758881 -323.11242828 399.79445496 -323.19172668 399.04940796 C-323.60510603 395.55044424 -324.01637663 393.69223194 -326.01171875 390.69921875 Z " fill="#000000" transform="translate(503.01171875,3.30078125)"/>
</svg>
