<?xml version="1.0" encoding="UTF-8"?>
<svg version="1.1" xmlns="http://www.w3.org/2000/svg" width="500" height="500">
<path d="M0 0 C1.40798001 -0.01149834 2.81591716 -0.03191659 4.22363281 -0.06152344 C15.38453088 -0.2957322 23.85523926 0.84441295 32.30224609 8.58422852 C42.67301228 19.88372003 40.58376923 35.14432551 40.09472656 49.48754883 C39.6268994 57.50538669 37.73796222 64.82236401 34.87255859 72.29516602 C34.61023438 72.98030273 34.34791016 73.66543945 34.07763672 74.37133789 C32.20739808 79.11196676 30.08175318 83.70489967 27.87255859 88.29516602 C27.24745428 89.63626323 26.62245518 90.97740949 25.99755859 92.31860352 C22.72764915 99.2103745 19.1235189 105.79159711 14.93505859 112.17016602 C14.56469482 112.74001221 14.19433105 113.3098584 13.81274414 113.89697266 C7.60503061 123.04911848 -0.52641497 130.84699451 -8.32666016 138.62719727 C-9.16534134 139.46683517 -10.00402252 140.30647308 -10.86811829 141.17155457 C-12.62398634 142.92809738 -14.38109472 144.68340117 -16.1394043 146.4375 C-18.82212428 149.11483447 -21.49942589 151.79750455 -24.17626953 154.48071289 C-25.89274565 156.19652863 -27.60953171 157.91203436 -29.32666016 159.62719727 C-30.12053635 160.42309769 -30.91441254 161.21899811 -31.73234558 162.03901672 C-34.9403651 165.23357677 -38.11837397 168.36001424 -41.64575195 171.20214844 C-44.28563957 173.00652799 -44.28563957 173.00652799 -44.63525391 175.45141602 C-44.44576172 176.61157227 -44.44576172 176.61157227 -44.25244141 177.79516602 C-44.11193359 178.73489258 -43.97142578 179.67461914 -43.82666016 180.64282227 C-43.59591797 181.8480957 -43.36517578 183.05336914 -43.12744141 184.29516602 C-42.97355957 185.11871582 -42.81967773 185.94226563 -42.66113281 186.79077148 C-41.95985064 190.54226481 -41.25434979 194.2920197 -40.50097656 198.03344727 C-40.3248584 198.91258789 -40.14874023 199.79172852 -39.96728516 200.69750977 C-39.80607178 201.48633545 -39.6448584 202.27516113 -39.47875977 203.08789062 C-39.12744141 205.29516602 -39.12744141 205.29516602 -39.12744141 209.29516602 C-38.64275391 208.87364258 -38.15806641 208.45211914 -37.65869141 208.01782227 C-32.76673004 204.01958461 -29.51314057 202.19048242 -23.12744141 202.29516602 C-18.89649519 204.39315588 -15.55927336 207.41536548 -12.12744141 210.60766602 C-11.61955078 211.06850586 -11.11166016 211.5293457 -10.58837891 212.00415039 C-0.63945639 221.17501614 -0.63945639 221.17501614 -0.12744141 226.29516602 C-0.12744141 231.84763423 -1.79272694 234.89681874 -5.61108398 238.8972168 C-6.57167725 239.75299316 -7.53227051 240.60876953 -8.52197266 241.49047852 C-9.57109467 242.4627175 -10.61857313 243.43673248 -11.66455078 244.41235352 C-13.30023761 245.92448569 -14.9428377 247.42271013 -16.61645508 248.89282227 C-23.43351687 254.58138024 -23.43351687 254.58138024 -26.41845703 262.52758789 C-25.91358791 265.60785683 -25.14611617 268.34939019 -24.12744141 271.29516602 C-23.73338246 273.04097315 -23.35648689 274.79080665 -23.00244141 276.54516602 C-22.56931641 278.40141602 -22.56931641 278.40141602 -22.12744141 280.29516602 C-19.88381567 280.52362092 -19.88381567 280.52362092 -18.00244141 278.29516602 C-14.97550252 276.1894694 -12.93638767 275.51944474 -9.23291016 275.72094727 C-4.92934055 276.89464807 -2.15765507 280.1766937 0.87255859 283.29516602 C1.56736328 283.97836914 2.26216797 284.66157227 2.97802734 285.36547852 C4.34702095 286.71649284 5.70300972 288.08083627 7.04443359 289.45922852 C8.99733359 291.47085633 8.99733359 291.47085633 11.81005859 293.79516602 C14.79448517 297.41265278 14.87255859 299.60617587 14.87255859 304.29516602 C12.57660179 309.32399678 8.5260402 312.81492485 4.62255859 316.60766602 C3.27739246 317.96302158 1.93233891 319.3184889 0.58740234 320.67407227 C-1.48975279 322.74287073 -3.49222838 324.57924321 -5.81103516 326.38500977 C-8.15042222 328.32309847 -9.18694549 329.38945475 -10.12744141 332.29516602 C-9.68093571 337.93018092 -8.32753254 343.1751382 -6.83886719 348.61499023 C-5.67079728 353.0154952 -4.75732155 357.4669579 -3.81494141 361.92016602 C-3.38077063 363.9099077 -2.94584569 365.89948493 -2.51025391 367.88891602 C-1.56533009 372.23852265 -0.64623052 376.59262993 0.25537109 380.95141602 C0.77273953 383.44117836 1.29101497 385.93075236 1.81005859 388.42016602 C1.94376862 389.06249176 2.07747864 389.7048175 2.21524048 390.36660767 C4.34004673 400.52836898 6.6316261 410.64882475 8.98623848 420.75961304 C9.47026364 422.83834435 9.95325925 424.91731258 10.4360199 426.99633789 C11.89905149 433.29331702 13.36647043 439.58910889 14.85456753 445.88021755 C15.3278842 447.88718974 15.7971111 449.89506732 16.26463318 451.90339661 C16.84586333 454.39882724 17.43408455 456.89264257 18.03016663 459.38456726 C18.28817551 460.50015518 18.54618439 461.6157431 18.81201172 462.76513672 C19.15673523 464.22799858 19.15673523 464.22799858 19.50842285 465.72041321 C19.87928615 468.34273561 19.8179367 469.84132379 18.87255859 472.29516602 C16.81884766 474.67358398 16.81884766 474.67358398 14.13818359 477.28735352 C13.66314392 477.75577667 13.18810425 478.22419983 12.69866943 478.70681763 C11.18024875 480.20188517 9.65206006 481.68644358 8.12255859 483.17016602 C6.60905268 484.64837291 5.09778774 486.12876909 3.58929443 487.61209106 C2.21176068 488.96508704 0.8279746 490.31170865 -0.55615234 491.65795898 C-2.46330003 493.61399861 -4.05659139 495.47594732 -5.70654297 497.6237793 C-6.50543945 498.50533691 -7.30433594 499.38689453 -8.12744141 500.29516602 C-9.44744141 500.29516602 -10.76744141 500.29516602 -12.12744141 500.29516602 C-12.53881348 499.57264648 -12.95018555 498.85012695 -13.37402344 498.10571289 C-15.33222493 494.66813822 -17.29191821 491.23141688 -19.25244141 487.79516602 C-19.61269409 487.16358582 -19.97294678 486.53200562 -20.34411621 485.88128662 C-25.3008582 477.19505311 -30.31092847 468.54298129 -35.37744141 459.92016602 C-39.81150726 452.36777345 -44.09761428 444.75458049 -48.25244141 437.04516602 C-52.44450721 429.27063897 -56.83673666 421.65810429 -61.41918945 414.10791016 C-73.95009739 393.43201316 -85.71419652 372.28669895 -97.54541016 351.20532227 C-102.60875995 342.19584687 -107.68561119 333.22862896 -113.16259766 324.46313477 C-119.02563525 315.01000655 -124.63515503 305.48927595 -129.49462891 295.47875977 C-131.60973736 291.35480429 -133.91099982 287.3564943 -136.25244141 283.35766602 C-136.67267578 282.63514648 -137.09291016 281.91262695 -137.52587891 281.16821289 C-139.81472286 277.29673474 -142.20587135 273.73507915 -145.12744141 270.29516602 C-145.54405029 270.68671875 -145.96065918 271.07827148 -146.38989258 271.48168945 C-171.35451518 294.93672772 -171.35451518 294.93672772 -179.97900391 302.39672852 C-183.4409336 305.45581548 -186.81647872 308.60797919 -190.20507812 311.74780273 C-194.32688616 315.56437997 -198.4845271 319.33789699 -202.67041016 323.08422852 C-204.39018638 324.6317537 -206.10036957 326.18997586 -207.80322266 327.75610352 C-212.29285477 331.88377094 -216.8159158 335.90478761 -221.56494141 339.73266602 C-226.10060584 343.39087616 -230.3844531 347.24259567 -234.64672852 351.20898438 C-238.73751663 354.99327714 -243.0146325 358.49845842 -247.35791016 361.99047852 C-250.31587458 364.45197218 -253.13282181 367.04074142 -255.93994141 369.67016602 C-260.68170989 374.09638238 -265.63429559 378.13462155 -270.76855469 382.0949707 C-275.66993201 385.89054127 -280.37919129 389.87664162 -285.0637207 393.93530273 C-289.6096079 397.87012461 -294.23687436 401.68461953 -298.92041016 405.45532227 C-299.64873047 406.0624707 -300.37705078 406.66961914 -301.12744141 407.29516602 C-301.68176346 407.70854218 -302.23608551 408.12191833 -302.8072052 408.54782104 C-304.3982697 410.27819687 -304.3982697 410.27819687 -304.07060242 412.91116333 C-303.86852676 413.9610141 -303.66645111 415.01086487 -303.45825195 416.0925293 C-303.12756966 417.88051437 -303.12756966 417.88051437 -302.79020691 419.70462036 C-302.53411148 420.99520355 -302.27801605 422.28578674 -302.01416016 423.61547852 C-301.76152329 424.95694123 -301.51063836 426.29873497 -301.26142883 427.64083862 C-300.60022516 431.18138397 -299.91995332 434.71797206 -299.23425293 438.25384521 C-298.14320124 443.89062799 -297.07599724 449.53186676 -296.01825905 455.17498398 C-295.64719931 457.1355031 -295.26448403 459.09380479 -294.8815155 461.05203247 C-293.64574477 467.56062166 -292.59551848 473.6672782 -293.12744141 480.29516602 C-295.47900391 483.01000977 -295.47900391 483.01000977 -298.75244141 485.23266602 C-299.33058594 485.63525635 -299.90873047 486.03784668 -300.50439453 486.45263672 C-301.73214811 487.30636064 -302.9677853 488.14884165 -304.21044922 488.98071289 C-306.16891211 490.32360186 -308.05053157 491.73751362 -309.93212891 493.18579102 C-311.16360615 494.11847046 -312.39536894 495.05077301 -313.62744141 495.98266602 C-314.48909912 496.6525354 -314.48909912 496.6525354 -315.36816406 497.3359375 C-317.80255497 499.12051518 -319.61965283 500.25363392 -322.65869141 500.50219727 C-329.2776698 497.26601954 -333.48655145 489.17963016 -337.68994141 483.35766602 C-342.39878476 476.90150407 -347.21013974 470.55750224 -352.25244141 464.35766602 C-353.05016968 463.37455444 -353.05016968 463.37455444 -353.86401367 462.37158203 C-356.48476919 459.17796999 -359.1786985 456.19548497 -362.12744141 453.29516602 C-364.63302937 454.81849157 -367.13842324 456.3421347 -369.64355469 457.86621094 C-371.77297582 459.16140388 -373.90286543 460.4558269 -376.03320312 461.74951172 C-382.4485933 465.64169974 -382.4485933 465.64169974 -388.81103516 469.61938477 C-395.30298863 473.73181745 -401.96698504 477.44444084 -408.75244141 481.04516602 C-410.04142334 481.73582153 -410.04142334 481.73582153 -411.35644531 482.44042969 C-420.96949873 487.46881019 -431.06695554 492.07134046 -442.12744141 491.29516602 C-445.56918014 490.03760763 -447.57967102 488.91597245 -450.00244141 486.17016602 C-453.2617944 477.84070837 -450.39465418 469.23222054 -447.12744141 461.29516602 C-440.44854366 446.18608352 -432.05364588 432.16123417 -423.12744141 418.29516602 C-421.75175862 416.14976922 -420.3770827 414.00373049 -419.00244141 411.85766602 C-418.50486328 411.09583008 -418.00728516 410.33399414 -417.49462891 409.54907227 C-415.87132905 406.87294651 -414.49579126 404.10878479 -413.12744141 401.29516602 C-422.97241775 393.17829722 -432.96548376 385.33589654 -443.20800781 377.72827148 C-446.32545453 375.40069424 -449.41671118 373.03955825 -452.50244141 370.67016602 C-454.06091797 369.47520508 -454.06091797 369.47520508 -455.65087891 368.25610352 C-458.12744141 366.29516602 -458.12744141 366.29516602 -460.12744141 364.29516602 C-459.70905381 358.52926194 -454.51245265 352.9183167 -451.37695312 348.22045898 C-450.15511 346.33779879 -449.0130032 344.42447597 -447.88134766 342.48657227 C-447.15136395 341.29747228 -446.42091336 340.10865875 -445.68994141 338.92016602 C-445.05185547 337.83993164 -444.41376953 336.75969727 -443.75634766 335.64672852 C-440.31943301 332.57240071 -438.57528942 332.92865424 -434.12239075 333.03805542 C-428.37702826 333.53128365 -422.81300747 334.87061424 -417.19384766 336.12329102 C-414.49848255 336.68856283 -411.80014135 337.23916178 -409.10205078 337.79125977 C-404.88244848 338.65757594 -400.6697638 339.54250712 -396.4699707 340.50073242 C-382.0439803 344.55911151 -382.0439803 344.55911151 -367.79852295 343.39450073 C-363.63364279 340.5156892 -361.46963184 336.74748578 -359.12744141 332.29516602 C-357.82784363 330.62256602 -356.5002649 328.97070687 -355.12744141 327.35766602 C-354.18191406 326.15110352 -354.18191406 326.15110352 -353.21728516 324.92016602 C-350.76923584 321.84523304 -348.23802734 318.84975319 -345.68994141 315.85766602 C-342.31370033 311.89091466 -338.97319156 307.90224954 -335.68994141 303.85766602 C-328.66850766 295.24387141 -321.458619 286.79181663 -313.93994141 278.60766602 C-310.75007296 275.13380292 -307.70695246 271.59606577 -304.75244141 267.92016602 C-300.36450473 262.48192535 -295.66509305 257.38872372 -290.90087891 252.28344727 C-288.76389826 249.99158192 -286.67520792 247.66757844 -284.62744141 245.29516602 C-281.02661527 241.1295044 -277.27353167 237.10916554 -273.52978516 233.07250977 C-270.85328212 230.18134985 -268.20425417 227.2761847 -265.62744141 224.29516602 C-262.06926293 220.18156456 -258.36902021 216.20421327 -254.67260742 212.21533203 C-250.89033366 208.13090127 -247.15522188 204.007115 -243.43994141 199.86157227 C-239.03671249 194.97488072 -234.57900427 190.13780076 -230.12744141 185.29516602 C-234.86185061 181.18133476 -240.17674757 178.14498468 -245.56494141 174.98266602 C-246.55413574 174.3994458 -247.54333008 173.81622559 -248.5625 173.21533203 C-253.7176466 170.20178062 -258.87531622 167.3280765 -264.25244141 164.73266602 C-270.70451425 161.61340148 -276.77114129 157.98723079 -282.89257812 154.26635742 C-300.02033783 143.86793268 -317.47671249 134.00006198 -334.98681641 124.26098633 C-343.22754874 119.67665331 -351.39226332 114.98214712 -359.50244141 110.17016602 C-375.22724105 100.84287696 -390.99601526 91.58197759 -407.06494141 82.85766602 C-418.5950603 76.59080532 -429.83263915 69.83749267 -441.08935547 63.09692383 C-443.77167985 61.50615286 -446.46864891 59.94914272 -449.18212891 58.41235352 C-450.25370239 57.7977124 -450.25370239 57.7977124 -451.34692383 57.1706543 C-453.15774953 56.13506238 -454.97623836 55.11290061 -456.79541016 54.09204102 C-457.56498047 53.49907227 -458.33455078 52.90610352 -459.12744141 52.29516602 C-459.12744141 47.36838868 -457.42452751 45.62473573 -454.12744141 42.29516602 C-452.34354746 40.70460047 -450.52452334 39.16931109 -448.68212891 37.64672852 C-446.51972676 35.65626048 -444.63292033 33.64634331 -442.69775391 31.44360352 C-442.07046387 30.75387451 -441.44317383 30.06414551 -440.796875 29.35351562 C-439.5375543 27.96204795 -438.3071233 26.54376146 -437.11035156 25.09814453 C-435.19112814 23.01773532 -433.61198915 21.65691862 -431.12744141 20.29516602 C-428.67442322 20.32391357 -428.67442322 20.32391357 -425.89672852 20.8840332 C-424.83193268 21.09378281 -423.76713684 21.30353241 -422.67007446 21.51963806 C-421.50100555 21.77556229 -420.33193665 22.03148651 -419.12744141 22.29516602 C-417.88755463 22.56426285 -416.64766785 22.83335968 -415.37020874 23.11061096 C-411.88031829 23.88284607 -408.39860233 24.68782352 -404.91831398 25.50213051 C-402.57996072 26.04912283 -400.24052954 26.59128535 -397.90080261 27.13237 C-392.08205079 28.47900132 -386.26511502 29.83340759 -380.44818115 31.18786621 C-374.74458027 32.515592 -369.04018248 33.83981209 -363.33447266 35.15844727 C-362.54121393 35.34186172 -361.74795521 35.52527618 -360.93065834 35.71424866 C-350.02917813 38.22947636 -339.109732 40.57971878 -328.12686157 42.7172699 C-319.51842904 44.39272275 -311.01164752 46.37787964 -302.50048828 48.49438477 C-300.92944336 48.87143555 -300.92944336 48.87143555 -299.32666016 49.25610352 C-298.41746826 49.48088379 -297.50827637 49.70566406 -296.5715332 49.93725586 C-294.0339074 50.30886303 -292.51796219 50.17792165 -290.12744141 49.29516602 C-288.64422976 47.92068825 -288.64422976 47.92068825 -287.37744141 46.17016602 C-284.60302097 42.74745135 -281.5750335 39.97932585 -278.22119141 37.13500977 C-275.26107619 34.53386375 -272.53270682 31.72530044 -269.79150391 28.89672852 C-266.66937144 25.89185924 -263.75057162 25.77278995 -259.56103516 25.82641602 C-254.95119199 26.71434728 -252.26817465 30.00575901 -249.12744141 33.29516602 C-247.71083186 34.69105732 -246.29416583 36.0868913 -244.87744141 37.48266602 C-243.6260634 38.75214246 -242.37604185 40.02295758 -241.12744141 41.29516602 C-240.41072266 41.99254883 -239.69400391 42.68993164 -238.95556641 43.40844727 C-235.99894249 46.45983476 -235.94514469 48.74227154 -235.70166016 52.93188477 C-236.35296881 56.54694658 -238.21351236 59.17323442 -240.12744141 62.29516602 C-237.21303541 62.99378391 -234.29658054 63.67936912 -231.37744141 64.35766602 C-230.55244141 64.55682617 -229.72744141 64.75598633 -228.87744141 64.96118164 C-228.07822266 65.14487305 -227.27900391 65.32856445 -226.45556641 65.51782227 C-225.72241211 65.69063721 -224.98925781 65.86345215 -224.23388672 66.04150391 C-221.7336751 66.34258409 -220.46014996 66.27984647 -218.12744141 65.29516602 C-215.59206154 63.06056116 -215.59206154 63.06056116 -213.02197266 60.23657227 C-212.02842947 59.2001919 -211.0342687 58.1644033 -210.03955078 57.12915039 C-208.48969713 55.49902641 -206.94594894 53.86411933 -205.41333008 52.21777344 C-194.70692566 40.76573518 -194.70692566 40.76573518 -186.12744141 40.29516602 C-179.8656843 41.91458596 -176.31465817 45.6354978 -172.12744141 50.29516602 C-171.50353516 50.97450195 -170.87962891 51.65383789 -170.23681641 52.35375977 C-162.47174212 60.98343266 -162.47174212 60.98343266 -161.68994141 66.23266602 C-162.24603491 70.12532056 -163.76246199 72.18690735 -166.12744141 75.29516602 C-166.70494141 76.07891602 -167.28244141 76.86266602 -167.87744141 77.67016602 C-168.28994141 78.20641602 -168.70244141 78.74266602 -169.12744141 79.29516602 C-167.86416016 79.41762695 -166.60087891 79.54008789 -165.29931641 79.66625977 C-158.98813458 80.36681577 -152.81088726 81.66182741 -146.59228516 82.92211914 C-145.70154297 83.09807617 -144.81080078 83.2740332 -143.89306641 83.45532227 C-143.09674805 83.61653564 -142.30042969 83.77774902 -141.47998047 83.94384766 C-136.74651122 84.69422966 -136.74651122 84.69422966 -132.35400391 83.26391602 C-129.3432819 80.50286364 -126.53285235 77.67646929 -123.87988281 74.56811523 C-120.2273584 70.36168435 -116.38910638 66.37872687 -112.46337891 62.42797852 C-111.74944977 61.7083493 -111.03552063 60.98872009 -110.29995728 60.24728394 C-108.79706335 58.7350078 -107.2927606 57.22413055 -105.78710938 55.71459961 C-103.52216196 53.43997086 -101.26814333 51.15487153 -99.01416016 48.86938477 C-73.00563226 22.66940233 -38.00175474 0.21566898 0 0 Z " fill="#010101" transform="translate(460.12744140625,-0.295166015625)"/>
</svg>
